<?xml version="1.0" encoding="utf-8"?>
<!-- Generator: Adobe Illustrator 25.3.1, SVG Export Plug-In . SVG Version: 6.00 Build 0)  -->
<svg version="1.1" id="Layer_1" xmlns="http://www.w3.org/2000/svg" xmlns:xlink="http://www.w3.org/1999/xlink" x="0px" y="0px"
	 viewBox="0 0 100 100" style="enable-background:new 0 0 100 100;" xml:space="preserve">
<style type="text/css">
	.st0{fill:#ffffff;}
</style>
<path class="st0" d="M15.5,73.8C9.3,80.1,2.7,87.9,7.7,92.9c1.2,1.2,2.6,1.8,4.1,1.8c4.6,0,10.2-4.9,14.9-9.6
	c4.8-4.8,10.1-11,13.9-16.4c0.4-0.6,1.1-0.7,1.8-0.4c7.7,3.9,16.9,3,23.7-2c0.1-0.1,0.1-0.1,0.2-0.2c0.8-0.6,1.6-1.3,2.4-2
	c1.9-1.9,3.4-4.1,4.5-6.5c0-0.1,0.1-0.2,0.1-0.2c1.4-3,2.1-6.3,2-9.8c-0.1-6.2-2.7-12-7.3-16.3c-6.7-6.2-16.8-7.6-24.9-4
	c0,0,0,0-0.1,0c-1.9,0.8-3.6,1.9-5.2,3.3c-1.3,1.1-2.5,2.4-3.5,3.7c0,0,0,0.1-0.1,0.1c-5.1,6.8-6,15.9-2.1,23.8
	c0.3,0.7,0.2,1.4-0.4,1.8C26.5,63.8,20.4,69,15.5,73.8z M65.7,33.8c3.9,3.6,6.1,8.5,6.2,13.7c0,2.5-0.4,4.9-1.2,7.1L68,54.3
	l-0.6-5.1c-0.1-0.8-0.7-1.5-1.6-1.6l-5.1-0.6L60.1,42c-0.1-0.8-0.7-1.5-1.6-1.6l-5.1-0.6l-0.6-5.1c-0.1-0.8-0.7-1.5-1.6-1.6
	l-5.1-0.6L46,30c2.1-0.8,4.4-1.2,6.6-1.2C57.3,28.8,62.1,30.5,65.7,33.8z M40.3,33.3c0.7-0.6,1.5-1.2,2.3-1.7l0.3,2.8
	c0.1,0.8,0.7,1.5,1.6,1.6l5.1,0.6l0.6,5.1c0.1,0.8,0.7,1.5,1.6,1.6l5.1,0.6l0.6,5.1c0.1,0.8,0.7,1.5,1.6,1.6l5.1,0.6l0.6,5.1
	c0.1,0.8,0.7,1.5,1.6,1.6L69,58c-0.8,1.2-1.7,2.4-2.7,3.5c-0.5,0.5-1.1,1-1.6,1.4L60,62.4l-0.6-5.1c-0.1-0.8-0.7-1.5-1.6-1.6
	l-5.1-0.6L52.1,50c-0.1-0.8-0.7-1.5-1.6-1.6l-5.1-0.6l-0.6-5.1c-0.1-0.8-0.7-1.5-1.6-1.6l-5.1-0.6l-0.6-4.7
	C38.5,35,39.3,34.1,40.3,33.3z M35.5,56.5C33,51.6,32.9,46,34.7,41.1l0.2,1.4c0.1,0.8,0.7,1.5,1.6,1.6l5.1,0.6l0.6,5.1
	c0.1,0.8,0.7,1.5,1.6,1.6l5.1,0.6l0.6,5.1c0.1,0.8,0.7,1.5,1.6,1.6l5.1,0.6l0.6,5.1c0.1,0.8,0.7,1.5,1.6,1.6l1.2,0.2
	c-4.9,1.8-10.4,1.6-15.3-0.8c-2.2-1.1-4.9-0.5-6.3,1.5c-3.8,5.3-8.8,11.2-13.5,15.9c-5,5-11.5,10.4-14,7.8c-2.5-2.5,2.9-9,7.8-14
	c4.7-4.7,10.7-9.8,15.9-13.5C36,61.4,36.6,58.7,35.5,56.5z"/>
<path class="st0" d="M85.5,66.7c0.5,0,0.9-0.2,1.3-0.5c9.8-9.8,9.8-25.6,0-35.4c-0.7-0.7-1.8-0.7-2.5,0c-0.7,0.7-0.7,1.8,0,2.5
	c8.4,8.4,8.4,22,0,30.3c-0.7,0.7-0.7,1.8,0,2.5C84.6,66.5,85,66.7,85.5,66.7z"/>
<path class="st0" d="M78.7,60.7c0.3,0.3,0.8,0.5,1.3,0.5s0.9-0.2,1.3-0.5c3.2-3.2,5-7.6,5-12.2c0-4.6-1.8-8.9-5-12.2
	c-0.7-0.7-1.8-0.7-2.5,0c-0.7,0.7-0.7,1.8,0,2.5c2.6,2.6,4,6,4,9.6c0,3.6-1.4,7.1-4,9.6C78,58.8,78,60,78.7,60.7z"/>
<path class="st0" d="M67.4,15.7c0.5,0,0.9-0.2,1.3-0.5c0.7-0.7,0.7-1.8,0-2.5c-4.7-4.7-11-7.3-17.7-7.3c-6.7,0-13,2.6-17.7,7.3
	c-0.7,0.7-0.7,1.8,0,2.5c0.7,0.7,1.8,0.7,2.5,0c4-4,9.4-6.3,15.2-6.3c5.7,0,11.1,2.2,15.2,6.3C66.4,15.5,66.9,15.7,67.4,15.7z"/>
<path class="st0" d="M38.8,18.2c-0.7,0.7-0.7,1.8,0,2.5c0.3,0.3,0.8,0.5,1.3,0.5c0.5,0,0.9-0.2,1.3-0.5c5.3-5.3,14-5.3,19.3,0
	c0.7,0.7,1.8,0.7,2.5,0c0.7-0.7,0.7-1.8,0-2.5C56.4,11.5,45.5,11.5,38.8,18.2z"/>
</svg>
