<?xml version="1.0" encoding="utf-8"?>
<!-- Generator: Adobe Illustrator 25.3.1, SVG Export Plug-In . SVG Version: 6.00 Build 0)  -->
<svg version="1.1" id="Layer_1" xmlns="http://www.w3.org/2000/svg" xmlns:xlink="http://www.w3.org/1999/xlink" x="0px" y="0px"
	 viewBox="0 0 100 100" style="enable-background:new 0 0 100 100;" xml:space="preserve">
<style type="text/css">
	.st0{fill:#ffffff;}
</style>
<path class="st0" d="M89.2,88.1C89,88,70.9,82.2,44,83.3l-2.3-9c1.1-0.5,2.1-1.4,2.8-2.5c1.2,1.9,3.2,3.1,5.5,3.1s4.4-1.2,5.5-3.1
	c1.2,1.9,3.2,3.1,5.5,3.1s4.4-1.2,5.5-3.1c1.2,1.9,3.2,3.1,5.5,3.1s4.4-1.2,5.5-3.1c1.2,1.9,3.2,3.1,5.5,3.1c3.6,0,6.5-2.9,6.5-6.6
	c0-0.6-0.4-1-1-1s-1,0.4-1,1c0,2.5-2,4.6-4.5,4.6s-4.5-2.1-4.5-4.6c0-0.6-0.4-1-1-1s-1,0.4-1,1c0,2.5-2,4.6-4.5,4.6
	s-4.5-2.1-4.5-4.6c0-0.6-0.4-1-1-1s-1,0.4-1,1c0,2.5-2,4.6-4.5,4.6s-4.5-2.1-4.5-4.6c0-0.6-0.4-1-1-1s-1,0.4-1,1
	c0,2.5-2,4.6-4.5,4.6s-4.5-2.1-4.5-4.6c0-0.6-0.4-1-1-1s-1,0.4-1,1c0,1.7-0.9,3.1-2.3,3.9l-5.2-20.7c3.1-0.6,6.9-0.7,9.4,1.9
	c0.2,0.3,0.6,0.4,1,0.3s0.6-0.4,0.7-0.7c0.9-3.5,4.1-6.4,8-7.4c0.9-0.2,1.9-0.4,2.9-0.4c0.3,0,0.6-0.2,0.8-0.4s0.2-0.6,0.1-0.9
	C55,33.5,43,27.9,30.7,30.5l-0.5-2.1c-0.1-0.5-0.7-0.9-1.2-0.7c-0.5,0.1-0.9,0.7-0.7,1.2l0.5,2.1C16.5,34.5,8.6,45.2,10.2,56.2
	c0,0.3,0.2,0.6,0.5,0.7c0.3,0.1,0.6,0.1,0.9,0c0.8-0.4,1.7-0.7,2.5-1c4-1,8.3,0.1,10.7,2.8c0.2,0.2,0.5,0.3,0.7,0.3
	c0.1,0,0.2,0,0.2,0c0.4-0.1,0.6-0.4,0.7-0.7c0.8-3.5,4.3-5.4,7.4-6.3l5.3,20.8c-0.1,0-0.2,0-0.3,0c-2.5,0-4.5-2.1-4.5-4.6
	c0-0.6-0.4-1-1-1s-1,0.4-1,1c0,2.5-2,4.6-4.5,4.6s-4.5-2.1-4.5-4.6c0-0.6-0.4-1-1-1s-1,0.4-1,1c0,2.5-2,4.6-4.5,4.6
	s-4.5-2.1-4.5-4.6c0-0.6-0.4-1-1-1s-1,0.4-1,1c0,3.6,2.9,6.6,6.5,6.6c2.3,0,4.4-1.2,5.5-3.1c1.2,1.9,3.2,3.1,5.5,3.1
	s4.4-1.2,5.5-3.1c1.2,1.9,3.2,3.1,5.5,3.1c0.3,0,0.6,0,0.8-0.1l2.2,8.6c-9.4,0.5-19.8,1.9-30.9,4.6c-0.5,0.1-0.9,0.7-0.7,1.2
	c0.1,0.5,0.5,0.8,1,0.8c0.1,0,0.2,0,0.2,0c43.7-10.8,76.8-0.1,77.1,0c0.5,0.2,1.1-0.1,1.3-0.6C90,88.8,89.7,88.3,89.2,88.1z
	 M56.4,43.3c-0.6,0.1-1.3,0.2-1.9,0.3c-3.4,0.9-6.2,2.9-8,5.6c-0.5-1.7-1.3-4.1-2.6-6.6c-2.6-5-6-8.6-10.2-10.6
	C43.5,31,52.8,35.5,56.4,43.3z M17.2,53.6c-1.2,0-2.3,0.1-3.5,0.4c-0.6,0.1-1.1,0.3-1.6,0.5c-0.6-8.8,5.4-17.1,14.6-20.8
	c-2.7,3.7-4.1,8.6-3.9,14.2c0.1,2.9,0.5,5.5,0.9,7.3C21.8,54.2,19.5,53.6,17.2,53.6z M25.7,55.4c-1-4.3-2.9-15.6,4.4-22.5
	c9.8,2.6,13.5,13.5,14.6,17.8c-2.6-1.5-6.1-1.8-10.4-0.7C30.3,51,27.3,52.8,25.7,55.4z"/>
<path class="st0" d="M81.5,26.4c0-4.3-3.5-7.7-7.7-7.7s-7.7,3.5-7.7,7.7s3.5,7.7,7.7,7.7S81.5,30.7,81.5,26.4z M73.8,32.1
	c-3.1,0-5.7-2.6-5.7-5.7s2.6-5.7,5.7-5.7s5.7,2.6,5.7,5.7S76.9,32.1,73.8,32.1z"/>
<path class="st0" d="M74.8,14.3V11c0-0.6-0.4-1-1-1s-1,0.4-1,1v3.2c0,0.6,0.4,1,1,1S74.8,14.8,74.8,14.3z"/>
<path class="st0" d="M78.7,16.3c0.4,0,0.7-0.2,0.9-0.6l1.3-2.9c0.2-0.5,0-1.1-0.5-1.3c-0.5-0.2-1.1,0-1.3,0.5l-1.3,2.9
	c-0.2,0.5,0,1.1,0.5,1.3C78.4,16.3,78.6,16.3,78.7,16.3z"/>
<path class="st0" d="M83.4,19l2.4-2.2c0.4-0.4,0.4-1,0.1-1.4c-0.4-0.4-1-0.4-1.4-0.1l-2.4,2.2c-0.4,0.4-0.4,1-0.1,1.4
	c0.2,0.2,0.5,0.3,0.7,0.3C83,19.3,83.2,19.2,83.4,19z"/>
<path class="st0" d="M85.6,23.6l3.1-1c0.5-0.2,0.8-0.7,0.6-1.3c-0.2-0.5-0.7-0.8-1.3-0.6l-3.1,1c-0.5,0.2-0.8,0.7-0.6,1.3
	c0.1,0.4,0.5,0.7,1,0.7C85.4,23.7,85.5,23.6,85.6,23.6z"/>
<path class="st0" d="M89.1,27l-3.2-0.3c-0.5-0.1-1,0.3-1.1,0.9c-0.1,0.5,0.3,1,0.9,1.1l3.2,0.3c0,0,0.1,0,0.1,0c0.5,0,0.9-0.4,1-0.9
	C90.1,27.6,89.7,27.1,89.1,27z"/>
<path class="st0" d="M87,35.1c0.3,0,0.7-0.2,0.9-0.5c0.3-0.5,0.1-1.1-0.4-1.4l-2.8-1.6c-0.5-0.3-1.1-0.1-1.4,0.4
	c-0.3,0.5-0.1,1.1,0.4,1.4l2.8,1.6C86.7,35,86.9,35.1,87,35.1z"/>
<path class="st0" d="M82,39.4c0.2,0.3,0.5,0.4,0.8,0.4c0.2,0,0.4-0.1,0.6-0.2c0.4-0.3,0.5-0.9,0.2-1.4l-1.9-2.6
	c-0.3-0.4-0.9-0.5-1.4-0.2c-0.4,0.3-0.5,0.9-0.2,1.4L82,39.4z"/>
<path class="st0" d="M76.1,37.3c-0.5,0.1-0.9,0.6-0.8,1.2l0.7,3.2c0.1,0.5,0.5,0.8,1,0.8c0.1,0,0.1,0,0.2,0c0.5-0.1,0.9-0.6,0.8-1.2
	l-0.7-3.2C77.2,37.5,76.6,37.2,76.1,37.3z"/>
<path class="st0" d="M70.3,38.1l-0.7,3.2c-0.1,0.5,0.2,1.1,0.8,1.2c0.1,0,0.1,0,0.2,0c0.5,0,0.9-0.3,1-0.8l0.7-3.2
	c0.1-0.5-0.2-1.1-0.8-1.2C70.9,37.2,70.4,37.5,70.3,38.1z"/>
<path class="st0" d="M64.8,39.8c0.3,0,0.6-0.1,0.8-0.4l1.9-2.6c0.3-0.4,0.2-1.1-0.2-1.4c-0.4-0.3-1.1-0.2-1.4,0.2L64,38.3
	c-0.3,0.4-0.2,1.1,0.2,1.4C64.4,39.8,64.6,39.8,64.8,39.8z"/>
<path class="st0" d="M60.5,35.1c0.2,0,0.3,0,0.5-0.1l2.8-1.6c0.5-0.3,0.6-0.9,0.4-1.4c-0.3-0.5-0.9-0.6-1.4-0.4L60,33.2
	c-0.5,0.3-0.6,0.9-0.4,1.4C59.8,34.9,60.2,35.1,60.5,35.1z"/>
<path class="st0" d="M57.6,28.1c0.1,0.5,0.5,0.9,1,0.9c0,0,0.1,0,0.1,0l3.2-0.3c0.5-0.1,0.9-0.5,0.9-1.1c-0.1-0.5-0.5-0.9-1.1-0.9
	L58.4,27C57.9,27.1,57.5,27.6,57.6,28.1z"/>
<path class="st0" d="M58.3,21.4c-0.2,0.5,0.1,1.1,0.6,1.3l3.1,1c0.1,0,0.2,0,0.3,0c0.4,0,0.8-0.3,1-0.7c0.2-0.5-0.1-1.1-0.6-1.3
	l-3.1-1C59,20.5,58.4,20.8,58.3,21.4z"/>
<path class="st0" d="M64.8,19.3c0.3,0,0.5-0.1,0.7-0.3c0.4-0.4,0.3-1-0.1-1.4l-2.4-2.2c-0.4-0.4-1-0.3-1.4,0.1
	c-0.4,0.4-0.3,1,0.1,1.4l2.4,2.2C64.3,19.2,64.5,19.3,64.8,19.3z"/>
<path class="st0" d="M68.9,16.3c0.1,0,0.3,0,0.4-0.1c0.5-0.2,0.7-0.8,0.5-1.3L68.5,12c-0.2-0.5-0.8-0.7-1.3-0.5s-0.7,0.8-0.5,1.3
	l1.3,2.9C68.1,16.1,68.5,16.3,68.9,16.3z"/>
</svg>
