<?xml version="1.0" encoding="utf-8"?>
<!-- Generator: Adobe Illustrator 25.3.1, SVG Export Plug-In . SVG Version: 6.00 Build 0)  -->
<svg version="1.1" id="Layer_1" xmlns="http://www.w3.org/2000/svg" xmlns:xlink="http://www.w3.org/1999/xlink" x="0px" y="0px"
	 viewBox="0 0 100 100" style="enable-background:new 0 0 100 100;" xml:space="preserve">
<style type="text/css">
	.st0{fill:#ffffff;}
</style>
<g>
	<g>
		<g>
			<g>
				<path class="st0" d="M50,92.3c-0.6,0-1-0.2-1.3-0.6L11.9,55.2c-5.2-5.4-8.1-12.3-8.1-19.8S6.7,21,11.9,15.8
					c5.4-5.2,12.3-8.1,19.8-8.1C38.5,7.7,45,10,50,14.4c5-4.4,11.5-6.7,18.3-6.7c7.5,0,14.4,2.9,19.6,8.1l0,0l0,0
					C93.1,21,96,28.1,96,35.4c0,7.5-2.9,14.4-8.1,19.6L51.3,91.7C51,92.1,50.6,92.3,50,92.3z M31.7,11.5c-6.5,0-12.5,2.5-16.9,6.9
					S7.7,29,7.7,35.4s2.5,12.5,7.1,16.9L50,87.7l35.2-35.2c4.6-4.6,7.1-10.6,7.1-16.9s-2.5-12.5-7.1-16.9l0,0
					c-4.4-4.6-10.4-7.1-16.9-7.1c-6.5,0-12.5,2.5-16.9,7.1c-0.8,0.8-1.9,0.8-2.7,0C44,14,38.1,11.5,31.7,11.5z"/>
			</g>
		</g>
	</g>
	<path class="st0" d="M26.1,39.4c-0.8,0-1.4-0.6-1.5-1.4c0-0.3-0.6-6.6,5.6-10.8c0.7-0.5,1.6-0.3,2.1,0.4c0.5,0.7,0.3,1.6-0.4,2.1
		c-4.8,3.3-4.4,8-4.4,8.1c0.1,0.8-0.5,1.6-1.3,1.6C26.2,39.4,26.2,39.4,26.1,39.4z"/>
</g>
</svg>
