<?xml version="1.0" encoding="utf-8"?>
<!-- Generator: Adobe Illustrator 25.3.1, SVG Export Plug-In . SVG Version: 6.00 Build 0)  -->
<svg version="1.1" id="Layer_1" xmlns="http://www.w3.org/2000/svg" xmlns:xlink="http://www.w3.org/1999/xlink" x="0px" y="0px"
	 viewBox="0 0 100 100" style="enable-background:new 0 0 100 100;" xml:space="preserve">
<style type="text/css">
	.st0{fill:#ffffff;}
</style>
<path class="st0" d="M91.8,46.2h-8.1c-0.5-4.9-2-9-4.1-11.4c-1.3-1.5-2.7-2.3-4.3-2.3h-8.9c-1.6,0-3.1,0.8-4.3,2.3
	c-0.1,0.1-0.1,0.1-0.1,0.2c-0.5,0.6-0.9,1.3-1.3,2c-1.3,2.4-2.2,5.6-2.6,9.3H43.1c-0.5-4.9-2-9-4.1-11.4c-1.3-1.5-2.7-2.3-4.3-2.3
	h-8.9c-1.6,0-3.1,0.8-4.3,2.3c-0.1,0.1-0.1,0.1-0.1,0.2c-0.5,0.6-0.9,1.3-1.3,2c-1.3,2.4-2.2,5.6-2.6,9.3c0,0,0,0,0,0H7.6
	C6.1,46.2,5,47.8,5,50c0,2.2,1.1,3.8,2.6,3.8h9.6c0.4,3.7,1.3,6.9,2.6,9.3c0.4,0.8,0.9,1.4,1.3,2c0,0.1,0.1,0.1,0.1,0.2
	c1.3,1.5,2.7,2.3,4.3,2.3h8.9c1.6,0,3.1-0.8,4.3-2.3c2.1-2.4,3.6-6.5,4.1-11.4h14.8c0.4,3.7,1.3,6.9,2.6,9.3c0.4,0.8,0.9,1.4,1.3,2
	c0,0.1,0.1,0.1,0.1,0.2c1.3,1.5,2.7,2.3,4.3,2.3h8.9c1.6,0,3.1-0.8,4.3-2.3c2.1-2.4,3.6-6.5,4.1-11.4h8.1c1.5,0,2.6-1.7,2.6-3.8
	C94.5,47.8,93.3,46.2,91.8,46.2z M7.3,50c0-0.9,0.3-1.4,0.4-1.5h9.4c0,0.5,0,1,0,1.5s0,1,0,1.5c0,0,0,0,0,0H7.7
	C7.6,51.4,7.3,50.9,7.3,50z M25.7,65.3c-1.1,0-2.1-0.8-3.1-2.2c-0.5-0.7-0.9-1.5-1.3-2.5c-1.1-2.7-1.9-6.3-1.9-10.6s0.8-8,1.9-10.6
	c0.4-1,0.9-1.8,1.3-2.5c1-1.4,2.1-2.2,3.1-2.2h4.6c0,0.1-0.1,0.1-0.1,0.2c-0.5,0.6-0.9,1.3-1.3,2C27.1,40.1,26,44.7,26,50
	s1.1,9.9,2.8,13.1c0.4,0.8,0.9,1.4,1.3,2c0,0.1,0.1,0.1,0.1,0.2H25.7z M34.6,65.3c-1.1,0-2.1-0.8-3.1-2.2c-0.5-0.7-0.9-1.5-1.3-2.5
	C29,58,28.3,54.3,28.3,50s0.8-8,1.9-10.6c0.4-1,0.9-1.8,1.3-2.5c1-1.4,2.1-2.2,3.1-2.2c2.5,0,5.3,4.5,6.1,11.4h-5.1
	c-1.5,0-2.6,1.7-2.6,3.8c0,2.2,1.1,3.8,2.6,3.8h5.1C40,60.7,37.2,65.3,34.6,65.3z M43.2,51.5h-2.3h-5.1c-0.1-0.1-0.4-0.7-0.4-1.5
	c0-0.9,0.3-1.4,0.4-1.5h5.1h2.3h14.5c0,0.5,0,1,0,1.5s0,1,0,1.5H43.2z M66.3,65.3c-1.1,0-2.1-0.8-3.1-2.2c-0.5-0.7-0.9-1.5-1.3-2.5
	C60.7,58,60,54.3,60,50s0.8-8,1.9-10.6c0.4-1,0.9-1.8,1.3-2.5c1-1.4,2.1-2.2,3.1-2.2h4.6c0,0.1-0.1,0.1-0.1,0.2
	c-0.5,0.6-0.9,1.3-1.3,2c-1.8,3.2-2.8,7.8-2.8,13.1s1.1,9.9,2.8,13.1c0.4,0.8,0.9,1.4,1.3,2c0,0.1,0.1,0.1,0.1,0.2H66.3z M75.2,65.3
	c-1.1,0-2.1-0.8-3.1-2.2c-0.5-0.7-0.9-1.5-1.3-2.5c-1.1-2.7-1.9-6.3-1.9-10.6s0.8-8,1.9-10.6c0.4-1,0.9-1.8,1.3-2.5
	c1-1.4,2.1-2.2,3.1-2.2c2.5,0,5.3,4.5,6.1,11.4h-5.5c-0.7,0-1.3,0.9-1.5,2.3h0c0,0,0,0,0,0c-0.1,0.5-0.1,1-0.1,1.5
	c0,0.5,0.1,1.1,0.1,1.5c0.3,1.4,0.8,2.3,1.5,2.3c0,0,0,0,0,0h5.5C80.6,60.7,77.8,65.3,75.2,65.3z M91.7,51.5h-7.9h-2.3h-4.2
	c0.1-0.5,0.1-1,0.1-1.5c0-0.5-0.1-1.1-0.1-1.5c0,0,0,0,0,0h4.2h2.3h7.9c0.1,0.1,0.4,0.7,0.4,1.5S91.9,51.4,91.7,51.5z"/>
</svg>
