<?xml version="1.0" encoding="utf-8"?>
<!-- Generator: Adobe Illustrator 25.3.1, SVG Export Plug-In . SVG Version: 6.00 Build 0)  -->
<svg version="1.1" id="Layer_1" xmlns="http://www.w3.org/2000/svg" xmlns:xlink="http://www.w3.org/1999/xlink" x="0px" y="0px"
	 viewBox="0 0 100 100" style="enable-background:new 0 0 100 100;" xml:space="preserve">
<style type="text/css">
	.st0{fill:#ffffff;}
</style>
<g>
	<path class="st0" d="M97.4,79.5c-0.3-5.4-4.8-9.6-10.2-9.6c-0.3,0-0.6,0-0.9,0c-0.7-4.3-4.5-7.7-9-7.7c-0.5,0-1.1,0.1-1.6,0.2V50.3
		l6.6,5.5c0.3,0.2,0.6,0.4,1,0.4c0,0,0.1,0,0.1,0c0.4,0,0.8-0.2,1-0.5l6.1-7.3c0.5-0.6,0.5-1.6-0.2-2.1L51.5,13.5
		c-0.6-0.5-1.4-0.5-1.9,0L10.7,46.3c-0.6,0.5-0.7,1.5-0.2,2.1l6.1,7.3c0.2,0.3,0.6,0.5,1,0.5c0.4,0,0.8-0.1,1.1-0.3l6-5v11.6
		c-0.7-0.1-1.3-0.2-2-0.2c-4.5,0-8.3,3.3-9,7.7c-0.3,0-0.6,0-0.9,0c-5.4,0-9.9,4.2-10.2,9.6c0,0.2,0,0.4,0,0.6c0,2.2,0.7,4.3,2,6.1
		c0.3,0.4,0.7,0.6,1.2,0.6h88.4c0.5,0,0.9-0.2,1.2-0.6c1.3-1.8,2-3.9,2-6.1C97.4,79.9,97.4,79.7,97.4,79.5z M24.5,83.8H6.6
		c-0.7-1.1-1-2.4-1-3.7c0-0.1,0-0.3,0-0.4c0.2-3.8,3.4-6.8,7.2-6.8c0.6,0,1.3,0.1,1.9,0.2c0.5,0.1,1,0,1.3-0.3
		c0.4-0.3,0.6-0.8,0.5-1.3v-0.1c0-3.4,2.8-6.1,6.1-6.1c0.6,0,1.3,0.1,1.9,0.3V83.8z M17.9,52.6l-4.2-5l36.8-31l36.8,31l-4.2,5
		L51.5,26c-0.3-0.2-0.6-0.3-1-0.3c-0.3,0-0.7,0.1-1,0.3L17.9,52.6z M64.5,83.8h-9.3V60.7h9.3V83.8z M72.8,84.1h-3.7V84h-1.4V60
		c0-1.2-0.1-1.8-0.6-2c-0.3-0.3-0.7-0.5-1.1-0.5H53.5c-0.8,0-1.5,0.7-1.5,1.5V84H27.7v-1.3c0-10.9,0-21.8,0-32.8
		c0-0.8,0.2-1.4,0.9-1.9c7.1-5.9,14.1-11.9,21.2-17.8c0.3-0.2,0.6-0.5,1-0.8c2.7,2.3,5.5,4.6,8.2,6.9c4.4,3.6,8.7,7.3,13,11
		c0.4,0.4,0.8,1,0.8,1.6c0,3.2,0,6.5,0,9.7c0,1.7,0,3.5,0,5.2V84.1z M93.4,83.8H75.8V65.5c0.5-0.1,1.1-0.2,1.6-0.2
		c3.4,0,6.1,2.8,6.1,6.1v0.1c0,0.5,0.1,1,0.5,1.3c0.4,0.3,0.9,0.4,1.4,0.3c0.6-0.2,1.2-0.2,1.9-0.2c3.8,0,7,3,7.2,6.8
		c0,0.1,0,0.2,0,0.4C94.4,81.4,94.1,82.7,93.4,83.8z"/>
	<path class="st0" d="M50.5,39.3c-6.4,0-11.7,5.2-11.7,11.7c0,0.5,0.2,0.9,0.5,1.1c0.3,0.4,0.9,0.6,1.9,0.6c3.2,0,6.3,0,9.5,0
		c3.2,0,6.5,0,9.7,0c1.6,0,2-0.5,2-2c-0.1-3.1-1.5-6-3.7-8C56.7,40.6,53.7,39.3,50.5,39.3z M42.3,49.5c0.7-4.1,4.6-7.1,9-6.9
		c2.2,0.1,4.3,1.2,5.8,2.7c1,1.2,1.7,2.6,2,4.2H42.3z"/>
	<path class="st0" d="M47.6,57.9c-0.3-0.3-0.7-0.5-1.2-0.5H34c-0.8,0-1.5,0.7-1.5,1.5v12c0,0.5,0.2,0.9,0.5,1.1
		c0.3,0.4,0.7,0.6,1.5,0.6c2,0,3.9,0,5.9,0h5.8c1.6,0,2-0.4,2-1.9c0-3.7,0-7.4,0-11C48.2,58.7,48,58.2,47.6,57.9z M45,69.3h-9.2
		v-8.7H45V69.3z"/>
</g>
</svg>
