<?xml version="1.0" encoding="utf-8"?>
<!-- Generator: Adobe Illustrator 25.3.1, SVG Export Plug-In . SVG Version: 6.00 Build 0)  -->
<svg version="1.1" id="Layer_1" xmlns="http://www.w3.org/2000/svg" xmlns:xlink="http://www.w3.org/1999/xlink" x="0px" y="0px"
	 viewBox="0 0 100 100" style="enable-background:new 0 0 100 100;" xml:space="preserve">
<style type="text/css">
	.st0{fill:#ffffff;}
</style>
<path class="st0" d="M90,74.6c0-3.7-2.8-6.8-6.4-7.3c-0.4-6.4-5.7-11.4-12.2-11.4c-6.8,0-12.3,5.5-12.3,12.3v9.6
	c0,5.7-4.6,10.3-10.3,10.3c-5.7,0-10.3-4.6-10.3-10.3v-5.5c2.7-0.1,4.9-2.3,4.9-5v-2.5c5.2-1,10.2-3.6,14.3-7.6
	c5.3-5.3,8.2-12.3,8.2-19.8S63,22.8,57.7,17.5c0,0-0.1-0.1-0.1-0.1l0.2-1.7c0.3-2.8-1.7-5.4-4.5-5.7c-2.8-0.3-5.4,1.7-5.7,4.5
	l-0.3,2.6c-0.3,2.8,1.7,5.4,4.5,5.7c0.2,0,0.4,0,0.6,0c1.2,0,2.3-0.4,3.2-1.1c0.7-0.5,1.2-1.3,1.5-2c4.4,4.8,6.8,11,6.8,17.5
	c0,6.9-2.7,13.5-7.6,18.4c-10.1,10.1-26.6,10.1-36.7,0c-9.7-9.7-10.1-25.3-1.1-35.5c0.9,1.7,2.6,2.9,4.6,2.9c0.2,0,0.4,0,0.6,0
	c2.8-0.3,4.9-2.9,4.5-5.7L28,14.7c-0.3-2.8-2.9-4.9-5.7-4.5c-2.8,0.3-4.9,2.9-4.5,5.7l0.2,2C7.3,28.8,7.4,46.3,18.2,57.1
	c3.8,3.8,8.5,6.3,13.4,7.4v2.7c0,2.8,2.2,5,5,5v5.5C36.5,84.5,42,90,48.8,90c6.8,0,12.3-5.5,12.3-12.3v-9.6
	c0-5.7,4.6-10.3,10.3-10.3c5.4,0,9.8,4.2,10.2,9.4c-3.6,0.5-6.4,3.6-6.4,7.3c0,4.1,3.3,7.4,7.4,7.4S90,78.7,90,74.6z M20,18.2
	l-0.3-2.6c-0.2-1.7,1-3.3,2.8-3.5c0.1,0,0.2,0,0.4,0c1.6,0,3,1.2,3.1,2.8l0.3,2.6c0.2,1.7-1,3.3-2.8,3.5C21.8,21.2,20.2,20,20,18.2z
	 M55.8,15.5l-0.3,2.6c-0.1,0.8-0.5,1.6-1.2,2.1c-0.7,0.5-1.5,0.8-2.3,0.7c-1.7-0.2-3-1.8-2.8-3.5l0.3-2.6c0.2-1.6,1.6-2.8,3.1-2.8
	c0.1,0,0.2,0,0.4,0C54.8,12.2,56,13.8,55.8,15.5z M38.4,70.2h-1.8c-1.7,0-3-1.4-3-3v-2.3c1.5,0.2,2.9,0.4,4.4,0.4
	c1.2,0,2.3-0.1,3.5-0.2v2.2C41.5,68.9,40.1,70.2,38.4,70.2z M88,74.6c0,3-2.4,5.4-5.4,5.4s-5.4-2.4-5.4-5.4s2.4-5.4,5.4-5.4
	S88,71.6,88,74.6z"/>
</svg>
