<?xml version="1.0" encoding="utf-8"?>
<!-- Generator: Adobe Illustrator 25.3.1, SVG Export Plug-In . SVG Version: 6.00 Build 0)  -->
<svg version="1.1" xmlns="http://www.w3.org/2000/svg" xmlns:xlink="http://www.w3.org/1999/xlink" x="0px" y="0px"
	 viewBox="0 0 100 100" style="enable-background:new 0 0 100 100;" xml:space="preserve">
<style type="text/css">
	.st0{fill:#ffffff;}
</style>
<g id="Layer_2">
</g>
<g id="Layer_1">
	<g>
		<path class="st0" d="M82.5,25.3c1.5,0,2.8-1.3,2.8-2.8V4.8C85.3,3.3,84,2,82.5,2H64.8C63.3,2,62,3.3,62,4.8s1.3,2.8,2.8,2.8h10.9
			L62.8,20.5L62.1,20c-5.2-4.1-11.5-6.3-18.1-6.3c-16.2,0-29.3,13.1-29.3,29.3c0,14.8,11,27.2,25.6,29l0.9,0.1v9.3h-8.5
			c-1.5,0-2.8,1.3-2.8,2.8s1.3,2.8,2.8,2.8h8.5v8.3c0,1.5,1.3,2.8,2.8,2.8s2.8-1.3,2.8-2.8V87h8.5c1.5,0,2.8-1.3,2.8-2.8
			s-1.3-2.8-2.8-2.8h-8.5v-9.3l0.9-0.1c14.6-1.9,25.6-14.3,25.6-29c0-6.5-2.1-12.7-6-17.8l-0.5-0.7l12.9-12.9v10.9
			C79.7,24,81,25.3,82.5,25.3z M67.7,42.9C67.7,56,57.1,66.6,44,66.6S20.3,56,20.3,42.9S30.9,19.2,44,19.2S67.7,29.8,67.7,42.9z"/>
		<path class="st0" d="M53.9,39.2c1.2,0,2.3-1.1,2.3-2.3c0-1.2-1.1-2.3-2.3-2.3H34.1c-1.2,0-2.3,1.1-2.3,2.3c0,1.2,1.1,2.3,2.3,2.3
			H53.9z"/>
		<path class="st0" d="M53.9,51.1c1.2,0,2.3-1.1,2.3-2.3s-1.1-2.3-2.3-2.3H34.1c-1.2,0-2.3,1.1-2.3,2.3s1.1,2.3,2.3,2.3H53.9z"/>
	</g>
</g>
</svg>
