<?xml version="1.0" encoding="utf-8"?>
<!-- Generator: Adobe Illustrator 25.3.1, SVG Export Plug-In . SVG Version: 6.00 Build 0)  -->
<svg version="1.1" id="Layer_1" xmlns="http://www.w3.org/2000/svg" xmlns:xlink="http://www.w3.org/1999/xlink" x="0px" y="0px"
	 viewBox="0 0 100 100" style="enable-background:new 0 0 100 100;" xml:space="preserve">
<style type="text/css">
	.st0{fill:#ffffff;}
</style>
<g>
	<path class="st0" d="M67.2,25c5.2,0,9.4-4.2,9.4-9.4s-4.2-9.4-9.4-9.4s-9.4,4.2-9.4,9.4S62,25,67.2,25z M67.2,9.4
		c3.4,0,6.2,2.8,6.2,6.2s-2.8,6.2-6.2,6.2c-0.7,0-2.9-0.3-4.2-1.6c-1.3-1.1-2.1-2.8-2.1-4.6C60.9,12.2,63.7,9.4,67.2,9.4z"/>
	<path class="st0" d="M18.8,43.8c5.2,0,9.4-4.2,9.4-9.4S23.9,25,18.8,25s-9.4,4.2-9.4,9.4S13.6,43.8,18.8,43.8z M18.8,28.1
		c3.4,0,6.2,2.8,6.2,6.2c0,1.8-0.8,3.5-2.1,4.6c-1.6,1.4-4,1.6-4.2,1.6c-3.4,0-6.2-2.8-6.2-6.2S15.3,28.1,18.8,28.1z"/>
	<path class="st0" d="M94.2,7.9l-9.4-3.1c-0.5-0.2-1-0.1-1.4,0.2c-0.4,0.3-0.6,0.8-0.6,1.3v12.5v7.8H60.9c-0.4,0-0.7,0.1-1,0.4
		l-9.4,7.8c-0.2,0.1-0.3,0.3-0.4,0.5l-4.4,8.9l-9.9,4.2l-8.8-2.9c-0.2-0.1-0.3-0.1-0.5-0.1H14.1c-4.3,0-7.8,3.5-7.8,7.8v17.2
		c0,0.9,0.7,1.6,1.6,1.6h4.7v18.8H6.2v3.1h7.8h7.8h6.2c0.9,0,1.6-0.7,1.6-1.6v-7.8h3.1h7.8h10.9c0.9,0,1.6-0.7,1.6-1.6V75h9.4h7.8
		c0.9,0,1.6-0.7,1.6-1.6v-7.8h9.4h7.8h4.7v-3.1h-3.1V50c0-4.3-3.5-7.8-7.8-7.8h-6.2v-6.2h7.8c4.3,0,7.8-3.5,7.8-7.8v-9.4
		c0-0.9-0.7-1.6-1.6-1.6h-4.7v-3.6l8.3-2.8c0.6-0.2,1.1-0.8,1.1-1.5S94.9,8.1,94.2,7.9z M69.6,29.7l-0.8,2l-0.8-2H69.6z M28.1,81.2
		c-0.9,0-1.6,0.7-1.6,1.6v7.8h-3.1V71.9h7.8v9.4H28.1z M34.4,81.2V70.3c0-0.9-0.7-1.6-1.6-1.6H21.9c-0.9,0-1.6,0.7-1.6,1.6v20.3
		h-4.7V54.7h-3.1v14.1H9.4V53.1c0-2.6,2.1-4.7,4.7-4.7h4.7v10.9h3.1V48.4h4.4l9.1,3c0.4,0.1,0.8,0.1,1.1,0l9.7-4.2l0.9,1.4l0.5,0.7
		l-10.5,5.2l-10.5-1.5c-0.4-0.1-0.9,0.1-1.2,0.4c-0.3,0.3-0.5,0.7-0.5,1.2v7.8c0,0.9,0.7,1.6,1.6,1.6h7.8c2.6,0,4.7,2.1,4.7,4.7
		v12.5H34.4z M51.6,71.9c-0.9,0-1.6,0.7-1.6,1.6v7.8h-7.8V68.8c0-4.3-3.5-7.8-7.8-7.8h-6.2v-4.4l9.2,1.3c0.3,0,0.6,0,0.9-0.2
		l12.5-6.2c0.2-0.1,0.4-0.3,0.6-0.5c0,0,0,0,0,0l6.1-9.2l3.5-2.7v32.8H51.6z M79.7,62.5h-7.8v-9.4h7.8V62.5z M89.1,28.1
		c0,2.6-2.1,4.7-4.7,4.7H75c-0.9,0-1.6,0.7-1.6,1.6v9.4c0,0.9,0.7,1.6,1.6,1.6h7.8c2.6,0,4.7,2.1,4.7,4.7v12.5h-4.7V51.6
		c0-0.9-0.7-1.6-1.6-1.6H70.3c-0.9,0-1.6,0.7-1.6,1.6v12.5v7.8h-4.7V35.9c0-0.6-0.3-1.1-0.9-1.4c-0.5-0.3-1.2-0.2-1.6,0.1l-6.2,4.7
		c-0.1,0.1-0.3,0.2-0.4,0.4L50,47.2l-1.3-2l4.1-8.3l8.7-7.2h3.1l2.7,6.8c0.2,0.6,0.8,1,1.5,1s1.2-0.4,1.5-1l2.7-6.8h11.4
		c0.9,0,1.6-0.7,1.6-1.6v-7.8h3.1V28.1z M85.9,10.3V8.4l2.9,1L85.9,10.3z"/>
</g>
</svg>
