<?xml version="1.0" encoding="utf-8"?>
<!-- Generator: Adobe Illustrator 25.3.1, SVG Export Plug-In . SVG Version: 6.00 Build 0)  -->
<svg version="1.1" id="Layer_1" xmlns="http://www.w3.org/2000/svg" xmlns:xlink="http://www.w3.org/1999/xlink" x="0px" y="0px"
	 viewBox="0 0 100 100" style="enable-background:new 0 0 100 100;" xml:space="preserve">
<style type="text/css">
	.st0{fill:#ffffff;}
</style>
<g>
	<g>
		<path class="st0" d="M91.7,72.2c-1.5,0-2.7,0.6-3.6,1.1c-0.3,0.1-0.6,0.3-0.7,0.4c-0.1,0-0.6-0.2-1.8-3.9
			c-0.1-0.3-0.1-0.5-0.2-0.6c-1-2.9-3.3-5.7-5.7-8.4l2-26.6c0-5.4-1.6-10.7-4.5-15.3l-1.1-1.7l-4.5,35l-7.8-7.3v-4h-3v12.7l2,0
			l8.1,7.8l-0.7,10.4v2.2c0,0.8-0.1,0.8-0.3,0.8c-0.2,0-0.4,0-0.7-0.1c-0.9-0.2-1.3-0.3-2.2-0.3c-4,0-6.8,3.2-6.8,7.9
			c0,4.8,3.9,9.3,8.2,9.3c3.9,0,6.6-3.2,6.6-7.8c0-1.6-0.4-3.1-0.7-4.7c-0.3-1.4-0.7-2.9-0.7-4.3c0-3.1,1.9-6.6,3.7-8.6
			c1.1,0.6,2.2,1.6,3.3,3c2.6,3.2,3.4,5.4,4.2,9.2c0.1,0.4,0.2,0.8,0.3,1.4c0.3,1.3,0.6,2.6,1.1,3.8c1.6,3.6,4.2,5.6,7.3,5.6
			c3.7,0,6.4-3.1,6.4-7.3C100,76.8,95.9,72.2,91.7,72.2z M68.3,87.6c-2.7,0-4.7-2.9-4.7-5.5c0-2,1.3-4,3.5-4c2.9,0,4.4,2.8,4.4,5.6
			C71.6,85.6,70.4,87.6,68.3,87.6z M93.1,85.2c-2.3,0-4.3-3.8-4.3-6.2c0-1.9,1.7-2.9,3.3-2.9c2.3,0,4.5,3.1,4.5,5.5
			C96.6,83.9,95.3,85.2,93.1,85.2z"/>
		<rect x="60.9" y="7" class="st0" width="3" height="12.7"/>
		<rect x="60.9" y="57.7" class="st0" width="3" height="12.7"/>
		<rect x="60.9" y="23.9" class="st0" width="3" height="12.7"/>
	</g>
	<polygon class="st0" points="96.6,60.1 84.5,60.1 84.5,56.4 92.9,56.4 92.9,29.9 84.5,29.9 84.5,26.2 96.6,26.2 	"/>
	<path class="st0" d="M31.5,53.1c1.8-2,3.2-4.2,4.2-6c0.7,0,1.5-0.1,2.1-0.5c2-1.1,2.8-3.6,1.7-5.6c-1.1-2-3.6-2.8-5.6-1.7
		c-2,1.1-2.8,3.6-1.7,5.6c0.1,0.2,0.3,0.4,0.4,0.6c-0.9,1.5-1.9,3.2-3.2,4.7l-4.9-7l8.9-13.4l23.2,0l0-3.7l-25.1,0L20.1,43.4
		l6.7,9.6c-1.4,1.1-3,1.9-4.6,1.9c-4,0-4.3-1.7-4.9-5.1c-0.5-2.7-1.1-6-4.2-8.2c-3.1-2.1-6.5-2-9.5,0.3c0,0,0,0,0,0
		c-2.1,1.6-3.4,3.8-3.4,3.9c-0.5,0.8-0.2,1.9,0.6,2.3c0.3,0.1,0.6,0.2,0.8,0.2c0.6,0,1.2-0.3,1.5-0.9c0,0,1-1.7,2.5-2.9l0,0
		c1.9-1.4,3.6-1.5,5.5-0.2c2,1.4,2.4,3.6,2.8,6c0.6,3.3,1.4,7.9,8.3,7.9c2.4,0,4.6-1,6.5-2.5l3.1,4.4h24.7v-3.7H33.8L31.5,53.1z"/>
	<path class="st0" d="M99.3,103.9"/>
</g>
</svg>
