<?xml version="1.0" encoding="utf-8"?>
<!-- Generator: Adobe Illustrator 25.3.1, SVG Export Plug-In . SVG Version: 6.00 Build 0)  -->
<svg version="1.1" id="Layer_1" xmlns="http://www.w3.org/2000/svg" xmlns:xlink="http://www.w3.org/1999/xlink" x="0px" y="0px"
	 viewBox="0 0 100 100" style="enable-background:new 0 0 100 100;" xml:space="preserve">
<style type="text/css">
	.st0{fill:#fff;}
</style>
<g>
	<path class="st0" d="M83.5,94.9h-67c-2.1,0-4.1-0.8-5.6-2.3c-1.5-1.5-2.3-3.5-2.3-5.6c0-4.4,3.5-7.9,7.9-7.9h8.2V82h-8.2
		c-2.7,0-5,2.2-5,5c0,1.3,0.5,2.6,1.5,3.5c0.9,0.9,2.2,1.5,3.5,1.5h67c2.7,0,5-2.2,5-5c0-1.3-0.5-2.6-1.5-3.5
		c-0.9-0.9-2.2-1.5-3.5-1.5h-8.2v-2.9h8.2c2.1,0,4.1,0.8,5.6,2.3s2.3,3.5,2.3,5.6C91.4,91.4,87.9,94.9,83.5,94.9z"/>
	<path class="st0" d="M81.5,80.7l-2.5-30.1c-1.1-12.6-10.1-23-22.4-25.8l0.7-2.9c3.3,0.8,6.4,2,9.3,3.8c2.8,1.7,5.4,3.8,7.6,6.3
		c4.5,5.2,7.2,11.5,7.8,18.4l2.5,30.1L81.5,80.7z"/>
	<path class="st0" d="M18.5,80.7l-2.9-0.2l2.5-30.1c0.6-6.9,3.3-13.2,7.8-18.4c2.2-2.5,4.7-4.6,7.6-6.3c2.9-1.7,6-3,9.3-3.8l0.7,2.9
		C31.2,27.6,22.1,38,21.1,50.6L18.5,80.7z"/>
	<path class="st0" d="M57.8,24.8H42.2l-0.4-0.9L35.4,9.4c-0.3-0.8-0.2-1.6,0.3-2.2s1.4-0.9,2.2-0.7l5.7,1.5c2.2,0.6,4.6,0.2,6.6-1.1
		C53,5,56.5,4.6,59.7,5.6l3.8,1.2c0.6,0.2,1,0.6,1.3,1.2s0.2,1.2,0,1.7l-6.6,14.1L57.8,24.8z M44.1,21.9h11.8l5.8-12.5l-2.9-1
		c-2.4-0.8-5-0.4-7.1,0.9c-2.6,1.7-5.9,2.2-8.9,1.4l-4.1-1.1L44.1,21.9z"/>
	<rect x="39.9" y="26.3" transform="matrix(0.5145 -0.8575 0.8575 0.5145 -1.948 52.1734)" class="st0" width="10.4" height="2.9"/>
	
		<rect x="53.4" y="22.6" transform="matrix(0.8575 -0.5145 0.5145 0.8575 -6.4854 32.2078)" class="st0" width="2.9" height="10.4"/>
	<rect x="48.5" y="74.8" class="st0" width="2.9" height="5.7"/>
	<rect x="48.5" y="42.5" class="st0" width="2.9" height="5.6"/>
	<path class="st0" d="M52.4,76.3h-4.8c-4.3,0-7.8-3.4-7.8-7.6h2.9c0,2.6,2.2,4.7,4.9,4.7h4.8c3,0,5.4-2.3,5.4-5.2
		c0-1.4-0.6-2.7-1.6-3.7c-1-1-2.4-1.5-3.9-1.5h-4.8c-4.6,0-8.4-3.7-8.4-8.1c0-2.2,0.9-4.2,2.5-5.8c1.6-1.5,3.7-2.4,5.9-2.4h4.8
		c4.3,0,7.8,3.4,7.8,7.6h-2.9c0-2.6-2.2-4.7-4.9-4.7h-4.8c-1.5,0-2.8,0.5-3.9,1.5c-1,1-1.6,2.3-1.6,3.7c0,2.9,2.4,5.2,5.4,5.2h4.8
		c2.2,0,4.3,0.8,5.9,2.4c1.6,1.5,2.5,3.6,2.5,5.8C60.8,72.6,57,76.3,52.4,76.3z"/>
</g>
</svg>
