<?xml version="1.0" encoding="utf-8"?>
<!-- Generator: Adobe Illustrator 25.3.1, SVG Export Plug-In . SVG Version: 6.00 Build 0)  -->
<svg version="1.1" id="Layer_1" xmlns="http://www.w3.org/2000/svg" xmlns:xlink="http://www.w3.org/1999/xlink" x="0px" y="0px"
	 viewBox="0 0 100 100" style="enable-background:new 0 0 100 100;" xml:space="preserve">
<style type="text/css">
	.st0{fill:#ffffff;}
</style>
<path class="st0" d="M71.1,52c6.3-3.6,10.2-10.3,10.2-17.6c0-2.6-0.5-5.3-1.7-8.1c-0.7-1.7-1.7-3.2-2.8-4.6
	c3.4-7.1,0.7-15.8-6.3-19.6c-6.2-3.5-14-2-18.7,3.5c-2.8-0.2-5.7,0.3-8.5,1.3c-2.8,1.2-5,2.6-6.7,4.4c-4.7,4.7-6.7,11.6-5.3,18.1
	l-5,5v5.8h-6.4v6.6H14l-4.7,4.7v12.7h13.3L43,43.8c2,3.8,5.3,7,9.4,9V93l9.4,6.6l9.4-6.6v-7.7l-4-4l4.7-4.7l-4.7-4.7l4.7-4.7
	l-4.7-4.7l4-4V52z M68.9,4.8c5.3,2.9,7.5,9,5.5,14.4c-2-1.7-4.3-3.1-6.7-3.9c-0.9-1.6-2-3-3.1-4c-2.5-2.5-5.6-4.2-9-5.1
	C59.3,3,64.6,2.4,68.9,4.8z M21.4,60.9h-8.9v-8.3l2.8-2.8H23v-6.6h6.4v-7.6l5.3-5.3l-0.2-0.9c-1.5-5.8,0.2-11.9,4.3-16
	c1.5-1.5,3.4-2.7,5.7-3.7c6.3-2.4,13.2-1,17.9,3.8c0.2,0.2,0.5,0.4,0.7,0.7c-0.7-0.1-1.4-0.1-2.2-0.1c-2.2,0-4.3,0.4-6.2,1
	c-0.9-0.6-1.9-1-3.1-1c-3,0-5.5,2.5-5.5,5.5c0,0.3,0,0.6,0.1,0.9c-3.4,3.6-5.6,8.5-5.6,13.9c0,2.2,0.4,4.3,1,6.3L21.4,60.9z
	 M68,50.1v7l-5.3,5.3l4.7,4.7l-4.7,4.7l4.7,4.7l-4.7,4.7l5.3,5.3v4.8l-6.2,4.4l-6.2-4.4V50.7l-1-0.4c-6.5-2.7-10.7-8.9-10.7-15.9
	c0-9.5,7.7-17.2,17.2-17.2c4.5,0,8.8,1.8,12,4.9c-1.5,2.1-3.4,3.6-5.6,4.4c-0.7,0.3-1.4,0.4-2.1,0.6c-1-1.3-2.5-2.1-4.3-2.1
	c-3,0-5.5,2.5-5.5,5.5s2.5,5.5,5.5,5.5s5.5-2.5,5.5-5.5c0-0.2,0-0.3,0-0.5c0.6-0.1,1.3-0.3,2-0.6c2.6-1,4.9-2.7,6.6-4.9
	c0.7,0.9,1.2,1.9,1.7,3c1,2.4,1.5,4.7,1.5,6.9c0,6.4-3.7,12.4-9.3,15.3L68,50.1z"/>
</svg>
