<?xml version="1.0" encoding="utf-8"?>
<!-- Generator: Adobe Illustrator 25.3.1, SVG Export Plug-In . SVG Version: 6.00 Build 0)  -->
<svg version="1.1" id="Layer_1" xmlns="http://www.w3.org/2000/svg" xmlns:xlink="http://www.w3.org/1999/xlink" x="0px" y="0px"
	 viewBox="0 0 100 100" style="enable-background:new 0 0 100 100;" xml:space="preserve">
<style type="text/css">
	.st0{fill:#ffffff;}
</style>
<path class="st0" d="M40.9,97.2c-0.1,0-0.2,0-0.3,0c-0.5-0.1-0.9-0.5-1.1-0.9l-8.5-21c-2.4,1.2-5.2,0.2-6.4-2.2
	c-0.6-1.3-0.7-2.9,0-4.2l-21-8.5c-0.8-0.3-1.2-1.2-0.9-2c0.1-0.2,0.2-0.4,0.3-0.5l5.5-5.5c0.4-0.4,0.9-0.5,1.4-0.4L33,56.2
	c1.2-1.7,2.3-3.1,3.3-4.2c1.5-1.8,5-5.5,10.2-11.1L4.2,24.2c-0.8-0.3-1.2-1.2-0.9-2c0.1-0.1,0.1-0.3,0.2-0.4l5.7-7
	c0.3-0.4,0.9-0.6,1.4-0.6l22,3.1l5.3-5.3c1.8-1.8,4.7-1.8,6.6,0c1.8,1.8,1.8,4.8,0,6.6L44.2,19l0.8,0.1l5.8-5.8
	c2.1-2.1,5.6-2.1,7.7,0c0.1,0.1,0.3,0.3,0.4,0.4c1.7,2.2,1.5,5.3-0.3,7.3l6.1,0.9c6-6.2,11.1-11.4,13.3-13.7
	c6.2-6.2,17-10.6,20.8-6.9c3.7,3.7-0.8,14.4-7,20.6c-2.2,2.2-7.4,7.3-13.7,13.3l0.9,6.1c1.1-1.1,2.6-1.6,4.1-1.6c1.5,0.1,3,0.8,4,2
	c1.7,2.3,1.5,5.5-0.5,7.5l-5.6,5.6l0.1,0.8l0.3-0.3c1.8-1.8,4.8-1.8,6.6,0c0.2,0.2,0.3,0.4,0.5,0.6c1.3,1.9,1,4.5-0.6,6.1l-5.1,5.1
	l3.1,22c0.1,0.5-0.1,1.1-0.6,1.4l-7,5.7c-0.4,0.3-0.9,0.4-1.4,0.3c-0.5-0.1-0.9-0.5-1.1-0.9L59,53.3c-4.1,3.9-8.9,8.3-11.1,10.2
	c-1.2,1-2.6,2.1-4.2,3.3l4.2,23.1c0.1,0.5-0.1,1-0.4,1.4L42,96.8C41.7,97.1,41.3,97.3,40.9,97.2z M31.8,71.4c0.2,0,0.3,0,0.5,0.1
	c0.4,0.1,0.8,0.5,1,0.9l8.3,20.5l3.2-3.2l-4.3-23.3c-0.1-0.6,0.1-1.2,0.6-1.5c2-1.4,3.6-2.7,4.8-3.7c1.9-1.6,6.3-5.7,12.7-11.7
	c0.6-0.6,1.6-0.6,2.2,0.1c0.1,0.1,0.2,0.3,0.3,0.5l16.6,42.5l4.7-3.8l-3.1-21.9c-0.1-0.5,0.1-1,0.4-1.3l5.7-5.7
	c0.6-0.5,0.7-1.4,0.3-2.1c-0.3-0.4-0.7-0.6-1.1-0.6c-0.4,0-0.9,0.1-1.2,0.4l-2.6,2.5c-0.6,0.6-1.6,0.6-2.2,0
	c-0.2-0.2-0.4-0.6-0.4-0.9l-0.7-4.6c-0.1-0.5,0.1-1,0.4-1.3l6.2-6.2c0.9-0.9,1.1-2.3,0.3-3.3c-0.8-1-2.3-1.2-3.3-0.3
	c-0.1,0.1-0.1,0.1-0.2,0.2l-2.2,2.2c-0.6,0.6-1.6,0.6-2.2,0c-0.2-0.2-0.4-0.6-0.4-0.9l-1.4-10c-0.1-0.5,0.1-1,0.5-1.3
	c6.4-6.1,12-11.6,14.2-13.8c6.2-6.2,8.5-14.7,7-16.2C94.9,2,86.3,4.2,80.1,10.5c-2.2,2.2-7.6,7.8-13.8,14.2
	c-0.3,0.4-0.8,0.5-1.3,0.5l-10-1.4c-0.9-0.1-1.4-0.9-1.3-1.8c0-0.3,0.2-0.6,0.4-0.9l2-2c0.9-0.9,1.1-2.3,0.3-3.3
	c-0.4-0.5-1-0.8-1.7-0.9c-0.7,0-1.3,0.2-1.8,0.7l-6.3,6.3c-0.3,0.3-0.8,0.5-1.3,0.4l-4.6-0.7c-0.9-0.1-1.4-0.9-1.3-1.8
	c0-0.3,0.2-0.6,0.4-0.9l2.6-2.5c0.6-0.6,0.6-1.6,0-2.2c-0.6-0.6-1.5-0.6-2.2,0l-5.8,5.8c-0.3,0.3-0.8,0.5-1.3,0.4l-21.9-3.1
	l-3.8,4.7l42.5,16.6c0.8,0.3,1.2,1.2,0.9,2c-0.1,0.2-0.2,0.4-0.3,0.5c-6.1,6.5-10,10.7-11.7,12.7c-1.1,1.3-2.4,2.9-3.8,4.8
	c-0.4,0.5-1,0.7-1.5,0.6l-23.3-4.3l-3.2,3.2l20.5,8.3c0.8,0.3,1.2,1.2,0.9,2c0,0.1-0.1,0.2-0.1,0.2l-0.7,1.1
	c-0.5,0.8-0.2,1.8,0.5,2.3c0.5,0.3,1.2,0.3,1.8,0l1.1-0.7C31.2,71.5,31.5,71.4,31.8,71.4L31.8,71.4z"/>
<path class="st0" d="M18,95.2c-0.9,0-1.6-0.7-1.6-1.6c0-0.4,0.2-0.8,0.4-1.1l10.8-11.3c0.6-0.6,1.6-0.6,2.2,0c0.6,0.6,0.6,1.6,0,2.2
	L19.2,94.7C18.9,95,18.5,95.2,18,95.2z"/>
<path class="st0" d="M5,85.5c-0.9,0-1.6-0.7-1.6-1.6c0-0.4,0.2-0.8,0.4-1.1l10.8-11.3c0.6-0.6,1.6-0.6,2.2,0c0.6,0.6,0.6,1.6,0,2.2
	L6.2,85C5.9,85.3,5.5,85.5,5,85.5z"/>
<path class="st0" d="M1.6,100C0.7,100,0,99.3,0,98.4c0-0.4,0.2-0.8,0.5-1.1L14.7,83c0.6-0.6,1.6-0.6,2.2,0c0.6,0.6,0.6,1.6,0,2.2
	c0,0,0,0,0,0L2.7,99.5C2.4,99.8,2,100,1.6,100z"/>
</svg>
