<?xml version="1.0" encoding="utf-8"?>
<!-- Generator: Adobe Illustrator 25.3.1, SVG Export Plug-In . SVG Version: 6.00 Build 0)  -->
<svg version="1.1" id="Layer_1" xmlns="http://www.w3.org/2000/svg" xmlns:xlink="http://www.w3.org/1999/xlink" x="0px" y="0px"
	 viewBox="0 0 100 100" style="enable-background:new 0 0 100 100;" xml:space="preserve">
<style type="text/css">
	.st0{fill:#fff;}
</style>
<g>
	<path class="st0" d="M90.8,48.1c0.3-0.5,0.7-1.1,1-1.6c1.5-2.3,3-4.7,3.2-7.6c0.3-3.7-1.7-6.9-3.5-9l0,0l0.5-2.6L27.4,14.9
		l-0.7,3.9l18.8,3.6c-5.3,2-9.8,5.7-12.4,10.5l47.1,9c-0.7-5.5-3.5-10.6-7.7-14.4l18,3.5c1.5,1.9,3.2,4.7,3,7.7
		c-0.2,2.5-1.5,4.6-3,6.9c-0.3,0.5-0.7,1.1-1,1.6c-1.6,2.7-3.2,6.7-1.4,10c-0.3,1.1-0.6,2.6,0.4,3.7c1.7,1.8,2,3.7,2,3.7
		s3.7-4.7-1.1-8.1C87.9,53.7,89.6,50,90.8,48.1z"/>
	<path class="st0" d="M76.9,43.4l-1.2-0.2l0,0L57,39.6L9.5,53.9l-1.2-4.1c-0.5-1.5-0.3-3.1,0.5-4.5s2-2.4,3.5-2.9l23.2-7l-4.1-0.8
		l-2.2-0.4l-17.8,5.4C6.6,41,4,46,5.4,50.7l1.2,4.1l0,0l2.6,8.5l0,0l4.7,15.4c1.2,3.9,4.7,6.4,8.6,6.4c0.9,0,1.7-0.1,2.6-0.4
		l50.4-15.2c4.7-1.4,7.4-6.4,6-11.2L76.9,43.4z M78.1,63.7c-0.8,1.4-2,2.4-3.5,2.9L24.1,81.8c-0.6,0.2-1.1,0.3-1.7,0.3
		c-2.6,0-4.9-1.7-5.7-4.2L12,62.5l61.8-18.7l4.7,15.4C79,60.7,78.8,62.3,78.1,63.7z"/>
</g>
</svg>
