<?xml version="1.0" encoding="utf-8"?>
<!-- Generator: Adobe Illustrator 25.3.1, SVG Export Plug-In . SVG Version: 6.00 Build 0)  -->
<svg version="1.1" id="Layer_1" xmlns="http://www.w3.org/2000/svg" xmlns:xlink="http://www.w3.org/1999/xlink" x="0px" y="0px"
	 viewBox="0 0 100 100" style="enable-background:new 0 0 100 100;" xml:space="preserve">
<style type="text/css">
	.st0{fill:#ffffff;}
</style>
<g>
	<path class="st0" d="M50.3,20.2c-0.2,0-0.2,0-0.3,0c-0.3,0-0.5,0-0.6,0.2h-1.6c-0.9,0-1.6,0.6-1.6,1.6s0.6,1.6,1.6,1.6h0.6v0.5
		c0,0.9,0.6,1.6,1.6,1.6c0.9,0,1.6-0.6,1.6-1.6v-0.8c1.2-0.6,2.2-1.9,2.2-3.4c0-2-1.7-3.8-3.8-3.8c-0.3,0-0.6-0.3-0.6-0.6
		c0-0.3,0.3-0.6,0.6-0.6h2.2c0.9,0,1.6-0.6,1.6-1.6c0-0.9-0.6-1.6-1.6-1.6h-0.6v-0.6c0-0.9-0.6-1.6-1.6-1.6c-0.9,0-1.6,0.6-1.6,1.6
		v0.9c-1.2,0.6-2.2,1.9-2.2,3.4c0,2,1.7,3.8,3.8,3.8c0.3,0,0.6,0.3,0.6,0.6S50.5,20.2,50.3,20.2z"/>
	<path class="st0" d="M93.3,43h-5.9c-1.7-5.5-5.3-10.2-10-13.4l-3.9-16.2c-0.2-0.6-0.6-1.1-1.2-1.1c-0.6-0.2-1.2,0.2-1.6,0.6
		L61.7,25H60c1.6-2.2,2.7-4.8,2.7-7.7c0-7-5.6-12.7-12.7-12.7s-12.7,5.6-12.7,12.7c0,3,0.9,5.6,2.7,7.8
		c-13.3,1.2-23.6,12.3-23.6,25.8V57h-6.2c-1.1,0-1.9-0.8-1.9-1.9v-4.5c0-1.1,0.8-1.9,1.9-1.9c0.9,0,1.6-0.6,1.6-1.6
		s-0.6-1.6-1.6-1.6c-2.8,0-5,2.2-5,5v4.5c0,2.8,2.2,5,5,5h6.2c0.3,5.8,2.5,11.4,6.4,15.6l2,18.1c0.2,0.8,0.8,1.4,1.6,1.4h11.4
		c0.8,0,1.4-0.6,1.6-1.4l1.1-9.5c0.6,0,1.2,0,1.9,0h20.3c0.6,0,1.2,0,1.9,0l1.1,9.5c0.2,0.8,0.8,1.4,1.6,1.4h11.4
		c0.8,0,1.4-0.6,1.6-1.4l2-18.1c3.1-3.6,5.3-8,6.1-12.5h5c0.9,0,1.6-0.6,1.6-1.6V44.5C94.8,43.6,94.2,43,93.3,43z M50,7.8
		c5.3,0,9.5,4.2,9.5,9.5s-4.2,9.5-9.5,9.5s-9.5-4.2-9.5-9.5S44.7,7.8,50,7.8z M91.7,60.2h-4.8h-0.2c-0.2,0-0.2,0-0.3,0
		s-0.2,0.2-0.3,0.2c-0.2,0-0.2,0.2-0.3,0.2l-0.2,0.2c0,0.2-0.2,0.2-0.2,0.3s0,0.2-0.2,0.3v0.2c-0.6,4.5-2.7,9.1-5.8,12.5
		c-0.2,0.3-0.3,0.6-0.5,0.9L77.2,92h-8.6l-1.1-9.7c0-0.5-0.3-0.8-0.6-1.1c-0.3-0.3-0.8-0.3-1.2-0.3c-0.9,0.2-2,0.2-3.1,0.2H42.2
		c-1.1,0-2,0-3.1-0.2c-0.5,0-0.8,0-1.2,0.3c-0.3,0.3-0.6,0.6-0.6,1.1l-0.8,9.8h-8.6L25.9,75c0-0.3-0.2-0.6-0.5-0.9
		c-3.9-4.2-5.9-9.5-5.9-15.3v-7.8c0-12.7,10.2-22.8,22.8-22.8h0.5c0.2,0,0.3,0,0.5-0.2c2,1.2,4.2,2,6.7,2c2.3,0,4.7-0.6,6.6-1.9h6.2
		c0.8,0,1.4-0.6,1.6-1.4l6.9-9.5l3.3,13.6c0,0.2,0.2,0.3,0.2,0.5l0,0c0.2,0.2,0.2,0.3,0.3,0.3l0,0c4.8,3.1,8.3,7.8,9.7,13.1
		c0,0,0,0,0,0.2c0,0,0,0.2,0.2,0.2c0,0.2,0.2,0.2,0.2,0.3l0.2,0.2c0.2,0.2,0.2,0.2,0.3,0.2c0,0,0.2,0,0.2,0.2c0.2,0,0.3,0.2,0.6,0.2
		l0,0h5.5C91.7,45.9,91.7,60.2,91.7,60.2z"/>
	<path class="st0" d="M58.4,34.4H40.3c-0.9,0-1.6,0.6-1.6,1.6s0.6,1.6,1.6,1.6h18.1c0.9,0,1.6-0.6,1.6-1.6S59.4,34.4,58.4,34.4z"/>
	<path class="st0" d="M75,43.4c-0.6-0.6-1.6-0.6-2.2,0c-0.6,0.6-0.6,1.6,0,2.2l2.5,2.7c0.3,0.3,0.8,0.5,1.1,0.5
		c0.3,0,0.8-0.2,1.1-0.5c0.6-0.6,0.6-1.6,0-2.2L75,43.4z"/>
</g>
</svg>
