<?xml version="1.0" encoding="utf-8"?>
<!-- Generator: Adobe Illustrator 25.3.1, SVG Export Plug-In . SVG Version: 6.00 Build 0)  -->
<svg version="1.1" id="Layer_1" xmlns="http://www.w3.org/2000/svg" xmlns:xlink="http://www.w3.org/1999/xlink" x="0px" y="0px"
	 viewBox="0 0 100 100" style="enable-background:new 0 0 100 100;" xml:space="preserve">
<style type="text/css">
	.st0{fill:#ffffff;}
</style>
<path class="st0" d="M28,48.4c0.2,0.1,0.5,0.2,0.8,0.2c0.7,0,1.3-0.4,1.6-1c0.8-1.8,2.5-2.9,4.5-2.9c0,0,0.1,0,0.1,0
	c1.9,0,3.6,1,4.5,2.8l0.1,0.2c0.4,0.9,1.5,1.2,2.4,0.8c0.9-0.4,1.2-1.5,0.8-2.4l-0.1-0.2c-1.5-3-4.5-4.7-7.8-4.7
	c-3.3,0.1-6.3,2-7.7,5C26.7,46.9,27.1,48,28,48.4z"/>
<path class="st0" d="M58.1,48.4c0.2,0.1,0.5,0.2,0.8,0.2c0.7,0,1.3-0.4,1.6-1c0.8-1.8,2.5-2.9,4.5-2.9c0,0,0.1,0,0.1,0
	c1.9,0,3.6,1,4.5,2.8l0.1,0.2c0.4,0.9,1.5,1.2,2.4,0.8c0.9-0.4,1.2-1.5,0.8-2.4l-0.1-0.2c-1.5-3-4.5-4.7-7.8-4.7
	c-3.3,0.1-6.3,2-7.7,5C56.9,46.9,57.2,48,58.1,48.4z"/>
<path class="st0" d="M39.5,68.1c-1,0-1.8,0.8-1.8,1.8s0.8,1.8,1.8,1.8h1.5c0.8,4.2,4.5,7.3,8.9,7.3c4.4,0,8.1-3.2,8.9-7.3h1.5
	c1,0,1.8-0.8,1.8-1.8s-0.8-1.8-1.8-1.8h-1.5c-0.8-4.2-4.5-7.3-8.9-7.3c-4.4,0-8.1,3.2-8.9,7.3H39.5z M50,64.4c3.1,0,5.6,2.5,5.6,5.5
	c0,3.1-2.5,5.5-5.6,5.5c-3.1,0-5.5-2.5-5.5-5.5C44.4,66.9,46.9,64.4,50,64.4z"/>
<path class="st0" d="M13.1,62.6C17,79.7,32.3,92,50,92c17.7,0,33-12.3,36.9-29.4c4.3-0.4,7.7-4.1,7.7-8.5c0-4.5-3.4-8.1-7.7-8.5
	c-2.8-12.2-11.6-22.3-23.3-26.8c-0.3-2.6-1.4-4.9-3.2-6.8c-2.6-2.6-6-4-9.6-4c-3.6,0-7,1.4-9.6,4c-1.8,1.8-3.2,4.1-4,6.5
	C25.1,22.8,16,33,13.1,45.6c-4.3,0.4-7.7,4.1-7.7,8.5C5.4,58.6,8.8,62.2,13.1,62.6z M13.9,49.1c0.1,0,0.2,0,0.4,0
	c0.9,0.1,1.8-0.5,2-1.4c2.3-12.2,11.1-22.3,22.9-26.2c0.6-0.2,1-0.7,1.2-1.3c0.5-2.2,1.7-4.1,3.3-5.8c3.9-3.9,10.2-3.9,14.1,0
	c1.5,1.5,2.3,3.4,2.2,5.5c0,2-0.8,3.9-2.2,5.3c-1,1-2.2,1.5-3.3,1.6c-0.1,0-0.1,0-0.2,0c-1.7,0.2-3.4-0.4-4.6-1.7
	c-0.3-0.3-0.5-0.6-0.7-0.9c-0.9-1.6-0.6-3.7,0.7-5c0.7-0.7,0.7-1.8,0-2.5s-1.8-0.7-2.5,0c-2.4,2.5-2.9,6.3-1.2,9.3
	c0.4,0.6,0.8,1.2,1.3,1.7c1.9,2,4.6,2.9,7.3,2.7c0.1,0,0.1,0,0.2,0c2.1-0.2,4.2-1.2,5.7-2.7c1.5-1.5,2.5-3.3,3-5.3
	c10.5,4.4,18.2,13.9,20.4,25.2c0.2,0.8,0.9,1.5,1.8,1.5h0.6c2.8,0,5,2.3,5,5c0,2.9-2.6,5.2-5.5,5c-0.9-0.1-1.7,0.5-1.9,1.4
	C80.6,76.7,66.5,88.4,50,88.4c-16.5,0-30.6-11.7-33.7-27.9c-0.2-0.9-0.9-1.5-1.8-1.5c-0.1,0-0.2,0-0.3,0c-0.1,0-0.2,0-0.3,0
	c-2.7,0-5-2.2-5-5C8.9,51.4,11.2,49.1,13.9,49.1z"/>
</svg>
