<svg width="400" height="50" viewBox="0 0 400 50" xmlns="http://www.w3.org/2000/svg" xmlns:xlink="http://www.w3.org/1999/xlink">
    <defs>
        <path id="a" d="M0 49.184h399.65V0H0z"/>
    </defs>
    <g fill="none" fill-rule="evenodd">
        <path d="M12.492 36.936C5.091 36.936 0 31.742 0 24.716v-.07c0-6.755 5.26-12.288 12.458-12.288 4.278 0 6.857 1.154 9.335 3.26l-3.292 3.97c-1.834-1.527-3.463-2.41-6.212-2.41-3.802 0-6.824 3.36-6.824 7.4v.067c0 4.346 2.987 7.537 7.196 7.537 1.902 0 3.599-.474 4.922-1.426v-3.393h-5.26v-4.516h10.32v10.322c-2.446 2.068-5.806 3.767-10.15 3.767M39.854 27.463c0-2.68-1.935-5.023-4.788-5.023-2.953 0-4.718 2.275-4.718 4.956v.067c0 2.684 1.935 5.024 4.786 5.024 2.953 0 4.72-2.273 4.72-4.954v-.07zm-4.788 9.473c-5.634 0-9.81-4.175-9.81-9.403v-.07c0-5.228 4.21-9.47 9.878-9.47 5.636 0 9.81 4.176 9.81 9.403v.067c0 5.228-4.208 9.473-9.878 9.473zM59.373 36.936c-6.995 0-12.187-5.398-12.187-12.22v-.07c0-6.755 5.09-12.288 12.39-12.288 4.48 0 7.164 1.494 9.37 3.667l-3.328 3.834c-1.833-1.662-3.7-2.68-6.076-2.68-4.006 0-6.892 3.325-6.892 7.4v.066c0 4.075 2.819 7.47 6.892 7.47 2.715 0 4.38-1.086 6.247-2.784l3.325 3.36c-2.443 2.614-5.159 4.245-9.741 4.245M85.137 27.463c0-2.68-1.933-5.023-4.785-5.023-2.953 0-4.718 2.275-4.718 4.956v.067c0 2.684 1.935 5.024 4.786 5.024 2.952 0 4.717-2.273 4.717-4.954v-.07zm-4.785 9.473c-5.635 0-9.81-4.175-9.81-9.403v-.07c0-5.228 4.209-9.47 9.878-9.47 5.636 0 9.81 4.176 9.81 9.403v.067c0 5.228-4.208 9.473-9.878 9.473zM103.74 29.195c-.881-.408-2.035-.678-3.291-.678-2.207 0-3.567.882-3.567 2.512v.067c0 1.391 1.156 2.207 2.818 2.207 2.41 0 4.04-1.324 4.04-3.192v-.916zm-.102 7.333V34.56c-1.254 1.39-2.986 2.309-5.499 2.309-3.43 0-6.247-1.972-6.247-5.569v-.067c0-3.974 3.022-5.805 7.334-5.805 1.834 0 3.158.304 4.448.745v-.304c0-2.14-1.327-3.326-3.904-3.326-1.969 0-3.362.371-5.026.983l-1.288-3.938c2.002-.882 3.97-1.46 7.06-1.46 5.635 0 8.112 2.92 8.112 7.841v10.56h-4.99zM118.474 36.868c-2.546 0-5.398-.849-7.808-2.75l2.207-3.396c1.968 1.427 4.04 2.173 5.736 2.173 1.493 0 2.172-.542 2.172-1.357v-.067c0-1.12-1.765-1.494-3.767-2.106-2.547-.746-5.432-1.935-5.432-5.465v-.067c0-3.7 2.988-5.772 6.655-5.772 2.307 0 4.82.782 6.789 2.106l-1.969 3.563c-1.799-1.053-3.6-1.698-4.923-1.698-1.257 0-1.902.544-1.902 1.256v.067c0 1.02 1.731 1.495 3.7 2.173 2.547.85 5.501 2.072 5.501 5.398v.07c0 4.038-3.021 5.872-6.959 5.872M133.954 36.832c-3.159 0-5.298-1.254-5.298-5.465v-8.62h-2.172v-4.415h2.172v-4.65h5.161v4.65h4.278v4.415h-4.278v7.771c0 1.19.508 1.766 1.664 1.766.95 0 1.798-.238 2.544-.643v4.141c-1.086.645-2.34 1.05-4.071 1.05M152.896 36.936c-7.4 0-12.492-5.194-12.492-12.22v-.07c0-6.755 5.261-12.288 12.458-12.288 4.278 0 6.856 1.154 9.335 3.26l-3.292 3.97c-1.835-1.527-3.463-2.41-6.213-2.41-3.801 0-6.823 3.36-6.823 7.4v.067c0 4.346 2.986 7.537 7.197 7.537 1.902 0 3.596-.474 4.92-1.426v-3.393h-5.26v-4.516h10.32v10.322c-2.445 2.068-5.805 3.767-10.15 3.767M177.914 36.528v-2.58c-1.187 1.527-2.714 2.92-5.329 2.92-3.903 0-6.18-2.58-6.18-6.757V18.332h5.162v10.15c0 2.444 1.153 3.7 3.122 3.7 1.968 0 3.225-1.256 3.225-3.7v-10.15h5.16v18.196h-5.16zM197.468 29.195c-.883-.408-2.036-.678-3.293-.678-2.206 0-3.566.882-3.566 2.512v.067c0 1.391 1.156 2.207 2.818 2.207 2.41 0 4.04-1.324 4.04-3.192v-.916zm-.104 7.333V34.56c-1.254 1.39-2.985 2.309-5.498 2.309-3.43 0-6.247-1.972-6.247-5.569v-.067c0-3.974 3.021-5.805 7.333-5.805 1.835 0 3.158.304 4.448.745v-.304c0-2.14-1.325-3.326-3.904-3.326-1.968 0-3.362.371-5.026.983l-1.288-3.938c2.003-.882 3.972-1.46 7.06-1.46 5.636 0 8.113 2.92 8.113 7.841v10.56h-4.99zM216.51 23.392c-3.426 0-5.532 2.07-5.532 6.414v6.722h-5.16V18.332h5.16v3.666c1.053-2.51 2.75-4.141 5.806-4.005v5.399h-.274zM231.888 27.396c0-3.021-2.002-5.024-4.411-5.024-2.41 0-4.446 1.969-4.446 5.024v.067c0 3.022 2.036 5.024 4.446 5.024 2.41 0 4.411-2.002 4.411-5.024v-.067zm-.066 9.132v-2.614c-1.257 1.698-2.988 2.954-5.67 2.954-4.244 0-8.282-3.328-8.282-9.405v-.067c0-6.076 3.971-9.402 8.282-9.402 2.751 0 4.447 1.254 5.67 2.714v-8.961h5.16v24.781h-5.16z" fill="#FFF"/>
        <mask id="b" fill="#fff">
            <use xlink:href="#a"/>
        </mask>
        <path fill="#FFF" mask="url(#b)" d="M240.411 36.529h5.5v-5.432h-5.5zM257.248 36.936c-5.465 0-9.47-4.212-9.47-9.403v-.07c0-5.194 3.971-9.47 9.537-9.47 3.43 0 5.568 1.154 7.266 3.056l-3.158 3.393c-1.153-1.221-2.307-2.002-4.142-2.002-2.58 0-4.412 2.275-4.412 4.956v.067c0 2.785 1.799 5.024 4.616 5.024 1.731 0 2.921-.745 4.175-1.935l3.021 3.058c-1.764 1.932-3.8 3.326-7.433 3.326M280.23 27.463c0-2.68-1.935-5.023-4.786-5.023-2.954 0-4.719 2.275-4.719 4.956v.067c0 2.684 1.935 5.024 4.786 5.024 2.955 0 4.72-2.273 4.72-4.954v-.07zm-4.786 9.473c-5.635 0-9.81-4.175-9.81-9.403v-.07c0-5.228 4.208-9.47 9.877-9.47 5.636 0 9.81 4.176 9.81 9.403v.067c0 5.228-4.208 9.473-9.877 9.473zM310.68 36.528v-10.15c0-2.444-1.086-3.7-3.02-3.7-1.936 0-3.125 1.256-3.125 3.7v10.15h-5.158v-10.15c0-2.444-1.087-3.7-3.022-3.7-1.935 0-3.125 1.256-3.125 3.7v10.15h-5.158V18.332h5.158v2.58c1.19-1.528 2.75-2.918 5.365-2.918 2.376 0 4.175 1.053 5.127 2.884 1.594-1.868 3.496-2.884 5.973-2.884 3.837 0 6.144 2.307 6.144 6.685v11.85h-5.158z"/>
        <path fill="#E1251B" mask="url(#b)" d="M375.662 49.183 399.65 0h-43.813L331.85 49.183z"/>
        <path d="M376.628 14.583a.23.23 0 0 0 .096-.018c.147-.056.276-.14.388-.25a1.117 1.117 0 0 0-.789-1.905 1.11 1.11 0 0 0-1.085.857.274.274 0 0 0 .044.222c.046.064.12.103.197.11a.978.978 0 0 1 .885.772.266.266 0 0 0 .264.212m-21.554 0a.26.26 0 0 0 .131-.033.281.281 0 0 0 .136-.18.958.958 0 0 1 .263-.487.988.988 0 0 1 .618-.284.27.27 0 0 0 .196-.11.277.277 0 0 0 .046-.222 1.097 1.097 0 0 0-.296-.53 1.104 1.104 0 0 0-.789-.327 1.118 1.118 0 0 0-.789 1.905c.114.11.242.194.388.25.031.013.065.018.096.018m6.776-4.523.097.094 1.605 1.557.1.095-.095.1-2.152 2.305a.268.268 0 0 0 .306.43 10.118 10.118 0 0 1 4.139-.872c1.445 0 2.837.294 4.14.875a.273.273 0 0 0 .331-.09.27.27 0 0 0-.023-.342l-2.153-2.305-.094-.101.098-.095 1.605-1.557.098-.094.097.094 3.424 3.322a.273.273 0 0 0 .282.061.278.278 0 0 0 .174-.23 2.512 2.512 0 0 1 .722-1.552 2.49 2.49 0 0 1 1.772-.732c.668 0 1.297.26 1.772.732a2.51 2.51 0 0 1 0 3.542 2.5 2.5 0 0 1-1.479.716.27.27 0 0 0-.225.178.275.275 0 0 0 .069.281l3.353 3.255.1.1-.1.1-1.52 1.521-.09.091-.1-.085-2.682-2.29a.27.27 0 0 0-.174-.066.267.267 0 0 0-.165.058.27.27 0 0 0-.078.332 10.07 10.07 0 0 1 1.024 4.46c0 2.06-.608 4.043-1.764 5.728a.274.274 0 0 0 .032.343l1.49 1.497a.434.434 0 0 0 .32.117c.165 0 .362-.062.602-.19.006-.004.014-.006.021-.013.153-.1.296-.215.422-.34.51-.51.65-1.083.686-1.305a.266.266 0 0 0-.107-.262.26.26 0 0 0-.158-.053.258.258 0 0 0-.122.03l-1.04.529c.13-.352.282-.823.412-1.375.242-1.037.437-2.55.06-4.054 1.124.1 2.202.631 3.205 1.585a8.28 8.28 0 0 1 1.165 1.378l-1.224.623a.27.27 0 0 0-.128.342c.148.365.532 1.701-.776 3.572-1.247 1.784-1.27 3.294-1.187 3.99a4.285 4.285 0 0 0-.505-.027c-.748 0-1.95.16-3.426.927 0 0-.002.003-.004.003-1.137.611-2.275.74-3.032.74a5.64 5.64 0 0 1-1.057-.09.326.326 0 0 0-.055-.005.268.268 0 0 0-.229.127l-.825 1.332a7.86 7.86 0 0 1-1.19-1.134c-.593-.692-1.302-1.778-1.464-3.143.487.093 1.051.141 1.682.141 1.47 0 2.973-.251 3.791-.412l-.49.79a.275.275 0 0 0 .01.301c.051.07.133.11.218.11a.382.382 0 0 0 .065-.005c.344-.085 1.189-.321 1.583-.717a.964.964 0 0 0 .11-.13c.158-.224.216-.447.178-.663a.744.744 0 0 0-.267-.445l-1.28-1.281a.275.275 0 0 0-.192-.076.256.256 0 0 0-.146.042 10.13 10.13 0 0 1-5.563 1.652 10.12 10.12 0 0 1-5.561-1.652.274.274 0 0 0-.148-.045.271.271 0 0 0-.19.079l-1.283 1.28a.75.75 0 0 0-.267.446c-.038.216.021.44.176.663.032.044.07.088.112.13.396.396 1.24.632 1.584.717a.275.275 0 0 0 .282-.105.27.27 0 0 0 .01-.301l-.489-.79c.818.16 2.319.412 3.791.412a9.12 9.12 0 0 0 1.684-.14c-.166 1.364-.874 2.45-1.466 3.142a7.888 7.888 0 0 1-1.19 1.134l-.826-1.332a.264.264 0 0 0-.229-.127.288.288 0 0 0-.053.005c-.076.015-.476.09-1.058.09-.756 0-1.896-.129-3.034-.74-.001 0-.003-.003-.005-.003-1.474-.767-2.676-.927-3.426-.927-.197 0-.364.011-.501.028.08-.697.059-2.207-1.19-3.99-1.307-1.872-.924-3.208-.775-3.573a.268.268 0 0 0-.126-.342l-1.227-.623c.202-.303.6-.842 1.166-1.378 1.005-.954 2.08-1.485 3.207-1.585-.378 1.504-.185 3.017.06 4.054.128.552.28 1.023.412 1.375l-1.04-.53a.268.268 0 0 0-.281.024.262.262 0 0 0-.108.26c.037.224.177.795.686 1.306.125.126.27.242.422.341.006.007.015.009.022.013.24.128.436.19.602.19a.433.433 0 0 0 .319-.117l1.491-1.497a.273.273 0 0 0 .032-.343 10.099 10.099 0 0 1-1.764-5.729c0-1.566.344-3.064 1.023-4.456a.269.269 0 0 0-.079-.332.265.265 0 0 0-.34.007l-2.677 2.288-.097.085-.091-.091-1.522-1.522-.1-.099.102-.1 3.353-3.255a.278.278 0 0 0 .069-.28.272.272 0 0 0-.226-.18 2.49 2.49 0 0 1-2.207-2.487c0-.67.258-1.298.73-1.77a2.49 2.49 0 0 1 1.771-.732c.669 0 1.3.26 1.77.732.415.415.672.966.723 1.552.009.103.078.192.174.23a.275.275 0 0 0 .283-.06l3.422-3.323.099-.094" fill="#FFF" mask="url(#b)"/>
        <path d="M365.85 17.927a6.036 6.036 0 0 0-6.029 6.027 6.036 6.036 0 0 0 6.029 6.027 6.035 6.035 0 0 0 6.027-6.027 6.036 6.036 0 0 0-6.027-6.027m0 12.498a6.478 6.478 0 0 1-6.472-6.47 6.479 6.479 0 0 1 6.472-6.472 6.477 6.477 0 0 1 6.47 6.471 6.477 6.477 0 0 1-6.47 6.47" fill="#005CB9" mask="url(#b)"/>
        <path d="M379.012 32.028c-1.37 2.136-1.285 3.137-1.228 3.915-.737-.052-2.104.03-3.838.93h-.003l-.003.002c-2.478 1.119-4.278.534-4.278.534l-.869 1.418c-.672-.542-2.131-2.183-2.356-3.756 1.629.298 4.452-.176 4.83-.246 0 0-.555.874-.825 1.316 1.47-.088 2.198-.677 2.67-1.007.473-.33.405-.742.373-.917a.952.952 0 0 0-.337-.548l-1.213-1.22a10.556 10.556 0 0 0 2.307-2.27l1.442 1.437c.132.14.443.303 1.092-.041l.017-.01.015-.01a2.633 2.633 0 0 0 1.181-1.801l-.038-.656-1.291.656c.1-.302.207-.661.3-1.061.237-1.007.425-2.457.107-3.925.48.068.954.218 1.416.447.52.259 1.026.62 1.506 1.072.484.46.845.924 1.06 1.23l-1.411.71s.188.811.195 1.208c.012.568-.065 1.419-.82 2.593zm-23.202-8.074c0-1.966.569-3.802 1.55-5.35a10.114 10.114 0 0 1 3.397-3.298 9.967 9.967 0 0 1 5.093-1.39c1.858 0 3.6.51 5.096 1.393a10.129 10.129 0 0 1 3.39 3.289 9.976 9.976 0 0 1 1.552 5.356c0 5.535-4.504 10.039-10.038 10.039-5.536 0-10.04-4.503-10.04-10.039zm2.76 9.715a.986.986 0 0 0-.337.548c-.032.175-.098.587.375.917.472.33 1.2.92 2.667 1.007-.266-.442-.824-1.317-.824-1.317.377.07 3.202.545 4.83.247-.223 1.573-1.686 3.214-2.354 3.756l-.87-1.418s-1.801.584-4.278-.534l-.004-.001v-.002c-1.736-.9-3.104-.98-3.842-.93.057-.778.146-1.778-1.228-3.914-.754-1.174-.83-2.026-.82-2.594.01-.396.197-1.208.197-1.208l-1.414-.71c.217-.306.577-.77 1.063-1.23a6.308 6.308 0 0 1 1.504-1.072 4.628 4.628 0 0 1 1.417-.446c-.319 1.468-.13 2.917.105 3.925.095.4.2.758.3 1.06l-1.288-.655-.037.656c.024.185.15.857.734 1.44.133.136.283.256.442.36l.017.011.017.01c.65.343.96.182 1.092.04l1.425-1.433a10.53 10.53 0 0 0 2.322 2.28l-1.212 1.207zm-5.062-12.314-1.522-1.52 3.649-3.542.48-.465.076-.075a2.27 2.27 0 0 1-.734.143 2.363 2.363 0 0 1-1.75-4.034 2.362 2.362 0 0 1 4.03 1.82 2.384 2.384 0 0 1-.161.73l.555-.541 3.719-3.609 1.605 1.557-2.94 3.147a10.593 10.593 0 0 0-3.485 3.38l-3.522 3.01zm14.737-9.536 1.606-1.557 3.72 3.609.557.54a2.36 2.36 0 0 1 .522-2.55 2.364 2.364 0 1 1 .86 3.891l.076.076.481.465 3.647 3.543-1.52 1.52-3.53-3.014a10.511 10.511 0 0 0-3.476-3.373l-2.943-3.15zm13.395 15.857s-1.908-3.333-5.119-3.357c.953 3.03-.64 6.29-.64 6.29l1.69-.86a2.2 2.2 0 0 1-.611 1.157c-.107.107-.232.21-.38.306-.486.257-.602.12-.602.12l-1.49-1.498a10.37 10.37 0 0 0 1.808-5.88 10.4 10.4 0 0 0-1.05-4.58l2.68 2.293.29.246.267-.269 1.52-1.519.296-.296-.3-.29-3.352-3.254a2.754 2.754 0 0 0 1.637-.792 2.78 2.78 0 0 0 0-3.922 2.778 2.778 0 0 0-3.924 0 2.774 2.774 0 0 0-.8 1.72l-3.424-3.323-.285-.278-.285.278-1.606 1.556-.288.28.274.294 2.154 2.306a10.421 10.421 0 0 0-4.25-.898c-1.489 0-2.928.309-4.249.897l2.153-2.304.274-.294-.288-.28-1.605-1.558-.285-.276-.286.278-3.423 3.321a2.763 2.763 0 0 0-.8-1.72 2.773 2.773 0 1 0-2.286 4.715l-3.355 3.255-.298.29.294.295 1.523 1.52.268.268.285-.246 2.679-2.288a10.4 10.4 0 0 0-1.05 4.575c0 2.13.633 4.161 1.809 5.882l-1.49 1.496s-.118.137-.604-.12a2.216 2.216 0 0 1-.992-1.464l1.693.86s-1.594-3.259-.64-6.289c-3.212.024-5.12 3.357-5.12 3.357l1.49.758c-.153.382-.588 1.837.804 3.827 1.63 2.332 1.075 4.165 1.075 4.165s1.66-.475 4.14.81c2.02 1.09 4.036.726 4.273.679l.978 1.579s2.887-1.889 3.032-5.01c-2.4.629-6.338-.327-6.338-.327l.824 1.33c-.256-.06-1.1-.286-1.457-.641a.83.83 0 0 1-.08-.096c-.338-.484.047-.749.047-.749l1.294-1.293a10.38 10.38 0 0 0 5.71 1.696c2.058 0 4.026-.593 5.708-1.696L372.851 34s.386.265.047.749a.61.61 0 0 1-.08.096c-.357.355-1.198.58-1.457.64l.826-1.329s-3.94.956-6.338.327c.144 3.121 3.03 5.01 3.03 5.01l.979-1.58c.235.048 2.252.411 4.272-.678 2.481-1.285 4.14-.81 4.14-.81s-.554-1.833 1.075-4.165c1.393-1.99.96-3.445.803-3.827l1.492-.758z" fill="#005CB9" mask="url(#b)"/>
        <path d="M355.413 13.7c-.178.176-.29.394-.34.622a.847.847 0 0 1-.293-1.387.844.844 0 0 1 1.195 0c.116.116.191.255.227.402a1.24 1.24 0 0 0-.789.362m.853-1.052a1.255 1.255 0 1 0-1.21 2.099c.138.036.282.05.421.037a.841.841 0 0 1 .226-.793.838.838 0 0 1 .9-.19 1.241 1.241 0 0 0-.337-1.153M375.724 12.936a.844.844 0 1 1 .9 1.387 1.241 1.241 0 0 0-1.124-.986.85.85 0 0 1 .224-.401m-.22.813a.83.83 0 0 1 .493.242.837.837 0 0 1 .227.792 1.25 1.25 0 0 0 .986-.363 1.255 1.255 0 1 0-2.114-.621c.132-.05.273-.066.409-.05" fill="#005CB9" mask="url(#b)"/>
        <path d="M363.693 23.24v4.636c.133.044.269.085.404.125.071.022.14.041.213.064V23.24h-.617zM362.462 23.24v3.88c.065.08.136.155.21.223.126.111.262.202.407.282V23.24h-.617zM364.925 23.24v5.041c.214.09.422.2.616.343V23.24h-.616zM368.619 23.24v4.385c.147-.08.283-.17.407-.282.074-.068.146-.144.209-.223v-3.88h-.616zM367.388 23.24v4.825c.072-.023.143-.042.212-.064.138-.04.273-.081.403-.125V23.24h-.615zM366.16 23.24v5.384c.191-.144.398-.253.613-.344v-5.04h-.614z" fill="#E1251B" mask="url(#b)"/>
        <path d="M369.774 25.456c-.059.74-.232 1.276-.54 1.664a1.965 1.965 0 0 1-.208.223 2.06 2.06 0 0 1-.407.281c-.19.103-.4.182-.615.253-.13.043-.266.083-.403.124l-.213.064c-.208.063-.414.131-.615.215-.215.092-.422.2-.614.344-.11.08-.212.17-.309.274a2.274 2.274 0 0 0-.31-.274 2.917 2.917 0 0 0-.615-.343 5.834 5.834 0 0 0-.615-.216l-.213-.064c-.135-.04-.27-.081-.404-.124a3.796 3.796 0 0 1-.614-.253 2.17 2.17 0 0 1-.407-.28 2.185 2.185 0 0 1-.21-.224c-.305-.388-.48-.924-.539-1.664-.04-.497.033-.863.109-1.25.057-.294.115-.595.133-.966H369.534c.016.371.076.672.132.965.076.388.147.754.108 1.251m-.032-2.443c0-1.55.548-2.704.548-2.704h-8.882s.548 1.153.548 2.704c0 .078 0 .153-.006.227-.042.851-.31 1.336-.24 2.232.08.99.363 1.583.752 1.966.187.183.395.316.617.426.196.094.404.169.614.237.204.065.41.123.617.187.211.065.416.137.615.225.218.1.428.222.616.384.11.094.212.204.308.329l.001.003v-.003c.096-.125.2-.235.31-.329.186-.162.395-.284.613-.384.198-.088.406-.16.615-.225.205-.064.413-.122.616-.187.21-.068.42-.143.615-.237.223-.11.432-.243.616-.426.392-.383.672-.975.753-1.966.07-.896-.198-1.381-.24-2.232a3.467 3.467 0 0 1-.006-.227M360.85 31.514l.546-.763c.051-.068.096-.145.092-.228-.006-.112-.082-.217-.185-.293-.27-.193-.437-.034-.53.094l-.541.75-.411-.295.535-.745c.102-.142.236-.281.4-.307.257-.046.554.12.746.258.721.52.454.898.302 1.107l-.527.731-.427-.309zM359.422 30.407l-.457-.555.505-1.24-.906.753-.291-.353 1.22-1.005.448.543-.534 1.282.945-.785.293.356zM358.051 28.588l-.26-.47 1.383-.768.262.47zM357.728 27.233l.2.54-.295.108-.587-1.583.294-.11.204.551 1.188-.441.184.494zM357.017 26.121l-.235-1.393.299-.051.15.884.323-.054-.141-.833.298-.052.141.834.333-.057-.155-.904.304-.051.241 1.412zM358.04 23.779l.014-.224c.022-.346-.088-.575-.456-.6-.48-.031-.507.397-.516.557l-.017.204.975.063zm-1.308.451.052-.794c.013-.224.052-.52.177-.707.177-.268.442-.328.677-.312.35.023.598.172.7.56.047.195.033.426.024.556l-.051.8-1.58-.103zM358.281 21.318c.06.02.233.08.345-.208.016-.043.1-.26-.067-.326-.068-.028-.13-.011-.201.095l-.262.393c-.074.112-.265.399-.573.278-.24-.093-.379-.395-.173-.919.267-.685.59-.593.748-.534l-.193.494c-.045-.018-.203-.083-.294.151-.054.141-.022.257.065.29.11.043.176-.054.22-.117l.2-.3c.141-.214.311-.468.624-.346.328.129.345.522.173.962-.071.183-.211.465-.424.568-.17.083-.315.028-.38.005l.192-.486zM358.289 19.488l-.304.484-.265-.165.896-1.43.266.168-.311.497 1.072.674-.28.446zM360.279 18.033l-.641-.298-.004.004.283.656.362-.362zm-1.07-.308.454-.449 1.643.596-.417.416-.318-.133-.535.534.135.314-.369.37-.592-1.648zM360.974 16.638l-.486.302-.165-.265 1.43-.893.165.266-.497.312.673 1.076-.448.279zM362.063 15.654l1.326-.49.104.284-.841.31.113.31.793-.293.105.285-.792.291.116.318.862-.32.106.289-1.348.496zM364.425 16.05c.011.064.042.241.348.199.044-.007.278-.04.251-.219-.01-.074-.052-.116-.18-.128l-.471-.034c-.135-.01-.478-.036-.524-.364-.037-.255.158-.522.715-.602.728-.105.806.224.834.39l-.525.075c-.006-.047-.028-.218-.277-.181-.15.02-.235.106-.222.198.017.115.135.127.213.135l.358.024c.257.022.559.043.607.376.049.348-.284.555-.754.622-.191.028-.507.045-.701-.091-.154-.106-.179-.259-.193-.326l.521-.075zM367.643 15.527c.004-.162-.118-.242-.264-.268-.31-.053-.447.172-.496.456-.015.096-.08.488.32.556.271.048.328-.114.347-.173l.537.092c-.087.487-.685.427-.927.387-.18-.033-.494-.11-.668-.328-.173-.217-.167-.47-.14-.633.038-.213.133-.417.336-.554.22-.15.472-.156.744-.11.3.051.52.15.645.306.125.16.104.3.095.359l-.529-.09zM369.026 16.824c.34.153.517-.085.605-.285.093-.2.08-.327.055-.415-.033-.11-.134-.185-.239-.232-.313-.141-.502.047-.612.296-.105.23-.127.493.191.636m-.191-1.317c.298-.086.634.046.76.104.685.307.684.805.526 1.156-.26.574-.824.533-1.232.349-.457-.205-.788-.609-.546-1.145.045-.098.19-.377.492-.464M371.17 17.808l.234-.669-.004-.005-.625.349.395.325zm.201-1.095.492.403-.429 1.694-.457-.373.103-.329-.583-.479-.3.167-.405-.332 1.58-.751zM372.155 18.99c-.05.04-.194.15-.013.4.026.037.164.227.309.122.06-.043.08-.103.03-.221l-.188-.433c-.054-.123-.191-.44.077-.633.208-.15.537-.104.867.353.43.595.176.818.04.919l-.31-.43c.04-.027.181-.125.034-.328-.089-.123-.205-.159-.28-.103-.095.068-.05.177-.02.248l.145.33c.1.236.221.515-.05.712-.287.208-.625.006-.902-.376-.114-.159-.278-.429-.247-.663.023-.186.147-.28.201-.322l.307.425zM373.773 20.164l-.23-.525.286-.126.676 1.546-.288.125-.233-.536-1.165.507-.21-.48zM374.43 23.142c.16-.05.183-.21.165-.35-.05-.355-.329-.45-.592-.412-.364.05-.488.31-.446.624.014.096.04.189.067.283l.304-.042-.053-.394.298-.042.12.88-.837.117a4.074 4.074 0 0 1-.2-.814c-.03-.2-.041-.483.066-.719a.757.757 0 0 1 .6-.436c.188-.025.46.006.66.194.208.198.285.52.315.745.04.293.021.54-.09.707-.1.151-.23.17-.306.185l-.071-.526zM374.881 24.665l-.935-.107c-.085-.01-.173-.012-.245.033-.094.06-.149.175-.164.304-.037.326.182.398.34.416l.918.105-.058.504-.91-.103c-.175-.02-.36-.07-.463-.2-.165-.204-.163-.541-.138-.777.1-.883.564-.833.82-.805l.895.108-.06.522zM373.274 27.192l.708.028.004-.008-.519-.493-.193.473zm1.105-.13-.24.587-1.746.09.223-.547h.344l.286-.697-.247-.24.198-.48 1.182 1.286zM372.61 28.923l-.12.154c-.07.09-.106.136-.123.178a.179.179 0 0 0 .056.219c.154.121.28-.04.373-.158l.122-.155-.308-.238zm.859.005-.537.687c-.21.266-.301.355-.446.385-.074.016-.188.019-.323-.087-.137-.106-.143-.219-.125-.315a.76.76 0 0 1 .113-.276l-.007-.006c-.233.282-.35.214-.57.097-.095-.053-.246-.137-.362-.172l.35-.444c.095.034.2.1.32.172.165.098.225.135.369-.05l.136-.174-.487-.38.323-.411 1.246.974zM370.716 30.041l-.182.131c-.28.205-.388.436-.171.734.28.39.628.139.756.046l.169-.118-.572-.793zm1.182.722-.646.467c-.182.13-.435.289-.66.313-.318.034-.531-.135-.668-.324-.207-.284-.249-.571-.014-.897.12-.161.306-.296.413-.373l.649-.469.926 1.283zM363.187 30.958c-.15.043-.26.06-.375.063l-.12.331c.09-.002.188-.011.27-.034l-.41 1.122.502.185.556-1.51-.423-.157zM363.83 31.22l1.511.25-.053.32-.923 1.144-.613-.102.995-1.128-.971-.16zM366.504 31.926c-.004-.105-.076-.25-.31-.24-.208.01-.297.125-.29.264.004.121.087.252.306.241.21-.01.301-.12.294-.265zm-.542.722c.007.09.107.154.262.146.296-.013.323-.22.315-.506-.091.094-.21.174-.443.186-.26.011-.392-.041-.498-.123a.482.482 0 0 1-.194-.362c-.016-.327.291-.574.776-.596.512-.026.678.198.756.332.083.15.12.315.128.481.01.187-.019.43-.18.618-.172.199-.42.25-.66.26-.246.011-.473-.018-.64-.15-.11-.088-.125-.196-.134-.263l.512-.023zM368.206 32.464c.081-.023.155-.08.178-.148.048-.144-.023-.4-.033-.435a1.503 1.503 0 0 0-.15-.36c-.033-.052-.103-.142-.277-.094-.15.04-.264.132-.135.602.092.33.196.496.417.435m-.892-.97c.119-.21.347-.311.516-.358.354-.098.544-.027.648.036.159.089.303.239.39.547.124.445.016.874-.58 1.037-.212.064-.443.068-.62-.027-.258-.139-.363-.407-.407-.56-.04-.148-.087-.43.053-.676M319.01 49.183h7.162L350.16 0h-7.162z" fill="#005CB9" mask="url(#b)"/>
        <path d="M370.288 20.309h-8.88s.548 1.153.548 2.704c0 .078 0 .153-.006.227-.043.851-.31 1.336-.24 2.233.08.99.362 1.581.752 1.965.185.182.394.316.616.425.198.096.405.17.615.237.204.066.41.124.617.188a5.6 5.6 0 0 1 .615.226c.218.099.426.221.616.384.109.093.212.202.307.328l.002.003v-.003c.095-.126.198-.235.309-.328a2.51 2.51 0 0 1 .613-.384c.199-.089.407-.16.616-.226.204-.064.412-.122.616-.188.21-.067.419-.141.615-.237.223-.11.432-.243.615-.425.392-.384.672-.975.754-1.965.07-.897-.198-1.382-.24-2.233a4.428 4.428 0 0 1-.006-.227c0-1.551.546-2.704.546-2.704m-.032.02a7.082 7.082 0 0 0-.535 2.684c0 .083.002.157.006.228.017.354.074.647.129.929.078.4.152.779.11 1.301-.072.893-.316 1.531-.746 1.953a2.26 2.26 0 0 1-.61.42c-.213.104-.44.181-.613.237-.12.039-.245.075-.365.111l-.25.076c-.254.079-.444.15-.618.227a2.523 2.523 0 0 0-.619.387c-.105.089-.204.193-.296.31a2.096 2.096 0 0 0-.295-.31 2.553 2.553 0 0 0-.62-.387 5.41 5.41 0 0 0-.618-.227 54.205 54.205 0 0 0-.23-.07c-.128-.037-.259-.076-.386-.117a4.543 4.543 0 0 1-.612-.237 2.289 2.289 0 0 1-.611-.42c-.431-.424-.675-1.062-.746-1.953-.04-.523.033-.901.11-1.302.055-.282.112-.574.13-.928.005-.076.005-.154.005-.228a7.066 7.066 0 0 0-.537-2.683h8.817" fill="#005CB9" mask="url(#b)"/>
    </g>
</svg>
