<svg width="350" height="44" viewBox="0 0 350 44" xmlns="http://www.w3.org/2000/svg">
    <g fill="none" fill-rule="evenodd">
        <path d="M10.674 32.446C4.362 32.446 0 27.92 0 21.796v-.06A10.745 10.745 0 0 1 3.104 14.1c2-2.013 4.713-3.114 7.52-3.052 3.639 0 5.85 1.003 7.964 2.839l-2.81 3.457c-1.565-1.329-2.952-2.1-5.3-2.1-3.2-.014-5.798 2.913-5.798 6.421v.056c0 3.787 2.547 6.57 6.135 6.57 1.49.051 2.958-.38 4.194-1.23v-2.956h-4.48v-3.936h8.8v8.992a13.026 13.026 0 0 1-8.655 3.285zM30.69 32.446c-4.938 0-8.6-3.5-8.6-7.881v-.058c0-4.38 3.69-7.939 8.66-7.939 4.97 0 8.6 3.5 8.6 7.88v.059c0 4.38-3.69 7.939-8.66 7.939zm4.208-7.94c0-2.234-1.698-4.21-4.208-4.21-2.586-.009-4.11 1.904-4.11 4.153v.058c0 2.235 1.692 4.21 4.208 4.21 2.59 0 4.138-1.908 4.138-4.152l-.028-.058zM51.474 32.444a10.638 10.638 0 0 1-7.659-3.07 10.388 10.388 0 0 1-3.083-7.58v-.06c0-5.884 4.485-10.689 10.921-10.689 3.95 0 6.314 1.301 8.26 3.193l-2.933 3.34c-1.618-1.449-3.263-2.323-5.36-2.323-3.53 0-6.074 2.9-6.074 6.45v.056c0 3.55 2.487 6.506 6.074 6.506 2.398 0 3.865-.93 5.51-2.426l2.93 2.928c-2.154 2.253-4.528 3.675-8.586 3.675zM70.036 32.446c-4.936 0-8.596-3.5-8.596-7.881v-.058c0-4.38 3.688-7.939 8.657-7.939 4.97 0 8.601 3.5 8.601 7.88v.059c0 4.38-3.693 7.939-8.662 7.939zm4.207-7.94c0-2.234-1.692-4.21-4.207-4.21-2.585 0-4.132 1.904-4.132 4.153v.058c0 2.235 1.692 4.21 4.207 4.21 2.59 0 4.132-1.908 4.132-4.152v-.058zM90.252 32.151v-1.666a6.115 6.115 0 0 1-4.763 1.955c-2.97 0-5.41-1.666-5.41-4.714v-.055c0-3.364 2.62-4.917 6.352-4.917a11.408 11.408 0 0 1 3.853.632v-.258c0-1.806-1.15-2.818-3.382-2.818a11.886 11.886 0 0 0-4.351.831l-1.118-3.332a14.222 14.222 0 0 1 6.116-1.238c4.883 0 7.027 2.475 7.027 6.643v8.937h-4.324zm.092-6.21a7.11 7.11 0 0 0-2.855-.573c-1.908 0-3.086.75-3.086 2.127v.059c0 1.179.998 1.87 2.44 1.87 2.087 0 3.501-1.125 3.501-2.71v-.772zM102.891 32.446a11.685 11.685 0 0 1-6.934-2.324l1.96-2.864c1.749 1.203 3.591 1.833 5.093 1.833 1.33 0 1.932-.45 1.932-1.144v-.036c0-.945-1.567-1.26-3.349-1.801-2.259-.63-4.822-1.635-4.822-4.611v-.059c0-3.125 2.653-4.872 5.912-4.872 2.148.03 4.242.647 6.03 1.779l-1.748 3.008c-1.601-.9-3.197-1.437-4.377-1.437-1.18 0-1.686.45-1.686 1.063v.054c0 .865 1.535 1.265 3.287 1.837 2.26.716 4.884 1.747 4.884 4.557v.059c0 3.409-2.681 4.958-6.182 4.958zM117.108 32.444c-2.816 0-4.721-1.122-4.721-4.886v-7.716h-1.933v-3.946h1.933v-4.16h4.622v4.16h3.8v3.946h-3.8V26.8c0 1.064.45 1.575 1.482 1.575a4.672 4.672 0 0 0 2.265-.573v3.688a6.788 6.788 0 0 1-3.648.955zM133.541 32.446c-6.314 0-10.661-4.526-10.661-10.65v-.06a10.74 10.74 0 0 1 3.106-7.636 10.3 10.3 0 0 1 7.528-3.052c3.642 0 5.85 1.003 7.967 2.839l-2.805 3.443c-1.566-1.329-2.954-2.1-5.303-2.1-3.246 0-5.822 2.927-5.822 6.45v.055c0 3.787 2.549 6.57 6.14 6.57a6.984 6.984 0 0 0 4.202-1.245v-2.955h-4.497v-3.936h8.813v8.992a13.045 13.045 0 0 1-8.668 3.285zM155.673 32.153v-2.207c-1.03 1.307-2.36 2.5-4.637 2.5-3.395 0-5.375-2.212-5.375-5.79V16.569h4.489v8.681c0 2.093 1.002 3.171 2.713 3.171s2.806-1.078 2.806-3.17v-8.682h4.489v15.585h-4.485zM173.095 32.151v-1.666a6.128 6.128 0 0 1-4.764 1.955c-2.972 0-5.412-1.666-5.412-4.714v-.055c0-3.364 2.616-4.917 6.354-4.917a11.415 11.415 0 0 1 3.855.632v-.258c0-1.806-1.151-2.817-3.383-2.817a11.935 11.935 0 0 0-4.358.83l-1.118-3.332a14.216 14.216 0 0 1 6.118-1.238c4.88 0 7.03 2.475 7.03 6.643v8.937h-4.322zm.088-6.21a7.071 7.071 0 0 0-2.851-.573c-1.914 0-3.087.75-3.087 2.127v.06c0 1.178.998 1.869 2.44 1.869 2.089 0 3.498-1.125 3.498-2.71v-.772zM188.889 21.2c-3.018 0-4.875 1.774-4.875 5.486v5.76h-4.527V16.867h4.55v3.14c.94-2.152 2.421-3.547 5.115-3.432V21.2h-.263zM202.44 32.144v-2.3c-1.143 1.659-3.07 2.638-5.12 2.6-3.852 0-7.478-2.928-7.478-8.273v-.06c0-5.346 3.588-8.275 7.479-8.275 1.998-.04 3.898.846 5.118 2.39v-7.871h4.662v21.79h-4.662zm.057-8.034c0-2.656-1.806-4.42-3.982-4.42-2.177 0-4.011 1.731-4.011 4.42v.061c0 2.656 1.834 4.42 4.01 4.42 2.177 0 3.983-1.764 3.983-4.42v-.06zM210.552 32.446v-4.833h4.833v4.833zM225.576 32.444a8.068 8.068 0 0 1-5.767-2.26 7.694 7.694 0 0 1-2.353-5.619v-.058a7.734 7.734 0 0 1 2.365-5.666 8.11 8.11 0 0 1 5.814-2.271c2.942 0 4.776.965 6.23 2.56l-2.707 2.843c-.988-1.023-1.976-1.676-3.55-1.676-2.214 0-3.788 1.904-3.788 4.152v.058c0 2.333 1.542 4.21 3.962 4.21 1.482 0 2.502-.626 3.582-1.622l2.589 2.578c-1.519 1.6-3.257 2.771-6.377 2.771zM241.246 32.446c-4.945 0-8.603-3.5-8.603-7.881v-.058c0-4.38 3.691-7.939 8.664-7.939s8.594 3.5 8.594 7.88v.059c0 4.38-3.681 7.939-8.655 7.939zm4.211-7.94c0-2.234-1.698-4.21-4.21-4.21-2.592 0-4.14 1.904-4.14 4.153v.058c0 2.235 1.697 4.21 4.21 4.21 2.591 0 4.14-1.908 4.14-4.152v-.058zM272.208 32.446v-8.681c0-2.093-.954-3.171-2.706-3.171s-2.793 1.078-2.793 3.17v8.682h-4.621v-8.681c0-2.093-.955-3.171-2.702-3.171-1.747 0-2.797 1.078-2.797 3.17v8.682h-4.617V16.86h4.617v2.207c1.064-1.307 2.463-2.5 4.802-2.5 2.124 0 3.738.914 4.588 2.472 1.283-1.575 3.26-2.489 5.346-2.472 3.437 0 5.5 1.979 5.5 5.73v10.148h-4.617z" fill="#FFF" fill-rule="nonzero"/>
        <path fill="#E1251B" fill-rule="nonzero" d="M328.998 43.491 350 0h-38.362l-21.007 43.491z"/>
        <path d="m316.524 8.284.084.08 1.398 1.37.089.084-.084.089-1.864 2.026a.24.24 0 0 0 0 .3c.042.064.114.1.19.099.032.004.063.004.094 0a8.896 8.896 0 0 1 7.237 0c.031.007.063.007.094 0a.237.237 0 0 0 .195-.099.236.236 0 0 0 0-.3l-1.864-2.026-.084-.09.084-.084 1.398-1.37.089-.079.084.08 2.992 2.922a.232.232 0 0 0 .163.065.264.264 0 0 0 .084 0 .234.234 0 0 0 .149-.201 2.22 2.22 0 0 1 .573-1.37 2.188 2.188 0 0 1 3.109 0c.596.597.8 1.484.524 2.284-.275.8-.98 1.37-1.815 1.468a.233.233 0 0 0-.196.155.245.245 0 0 0 .056.249l2.931 2.86.089.09-.089.089-1.328 1.337-.08.08-.083-.076-2.33-2.012a.227.227 0 0 0-.299 0 .235.235 0 0 0-.065.29 9.02 9.02 0 0 1-.648 8.964.236.236 0 0 0 .028.3l1.273 1.276a.385.385 0 0 0 .28.098 1.15 1.15 0 0 0 .526-.164c.132-.087.256-.188.368-.3.313-.312.523-.713.601-1.15a.24.24 0 0 0-.233-.276.273.273 0 0 0-.107 0l-.932.469c.145-.396.267-.8.363-1.21a7.862 7.862 0 0 0 .052-3.565 4.65 4.65 0 0 1 2.796 1.408c.38.365.721.77 1.016 1.21l-1.067.548a.235.235 0 0 0-.112.3c.126.324.466 1.497-.68 3.143a5.145 5.145 0 0 0-1.04 3.508 3.733 3.733 0 0 0-.438 0 6.493 6.493 0 0 0-2.997.816 5.592 5.592 0 0 1-2.651.652 4.803 4.803 0 0 1-.932-.08h-.047a.237.237 0 0 0-.2.113l-.723 1.172a6.954 6.954 0 0 1-1.039-.999 5.315 5.315 0 0 1-1.282-2.762c.486.09.98.132 1.473.127a18.065 18.065 0 0 0 3.314-.366l-.43.694a.24.24 0 0 0 0 .267.237.237 0 0 0 .192.099h.056c.507-.1.985-.315 1.398-.629a.993.993 0 0 0 .093-.112.75.75 0 0 0 .154-.587.634.634 0 0 0-.233-.389l-1.114-1.125a.232.232 0 0 0-.172-.066.241.241 0 0 0-.126.033 8.854 8.854 0 0 1-9.722 0 .25.25 0 0 0-.13-.038.228.228 0 0 0-.163.07l-1.123 1.126a.68.68 0 0 0-.233.39.787.787 0 0 0 .153.586c.03.04.063.077.098.112.413.313.891.528 1.398.629h.056a.242.242 0 0 0 .191-.099.24.24 0 0 0 0-.267l-.428-.694c1.09.224 2.2.346 3.313.366.494.005.987-.038 1.473-.127a5.315 5.315 0 0 1-1.282 2.762c-.311.369-.66.704-1.04 1l-.721-1.173a.233.233 0 0 0-.2-.113h-.047c-.308.057-.62.084-.933.08a5.592 5.592 0 0 1-2.651-.652 6.493 6.493 0 0 0-2.992-.816 3.733 3.733 0 0 0-.438 0 5.145 5.145 0 0 0-1.04-3.508c-1.141-1.646-.81-2.814-.68-3.143a.235.235 0 0 0-.107-.3l-1.072-.548c.31-.442.668-.848 1.067-1.21a4.65 4.65 0 0 1 2.796-1.408 7.791 7.791 0 0 0 .056 3.565c.094.41.214.815.36 1.21l-.933-.469a.273.273 0 0 0-.107 0 .218.218 0 0 0-.14.047.23.23 0 0 0-.093.23c.078.436.288.837.601 1.149.112.112.236.213.368.3.16.097.34.153.527.164a.395.395 0 0 0 .28-.098l1.3-1.318a.236.236 0 0 0 .028-.3 9.012 9.012 0 0 1-.648-8.959.226.226 0 0 0-.07-.29.214.214 0 0 0-.14-.052.232.232 0 0 0-.154.056l-2.33 2.012-.088.075-.08-.08-1.328-1.336-.088-.09.093-.088 2.927-2.861a.245.245 0 0 0 .06-.249.233.233 0 0 0-.196-.155 2.2 2.2 0 0 1-1.937-2.294 2.197 2.197 0 0 1 2.144-2.1 2.196 2.196 0 0 1 2.226 2.012c.009.091.068.17.154.202h.084c.06-.001.119-.024.163-.066l3.03-2.88.083-.08m-5.919 3.978c.04 0 .078-.01.112-.029a.262.262 0 0 0 .121-.159.845.845 0 0 1 .788-.69.231.231 0 0 0 .21-.29.968.968 0 0 0-.257-.47.984.984 0 0 0-1.398 0 1 1 0 0 0 0 1.408.931.931 0 0 0 .34.22.18.18 0 0 0 .084 0m18.833 0a.18.18 0 0 0 .084 0 .931.931 0 0 0 .34-.22 1 1 0 0 0 0-1.407.984.984 0 0 0-1.659.469.255.255 0 0 0 .042.197.237.237 0 0 0 .172.094.87.87 0 0 1 .541.248.888.888 0 0 1 .233.432.232.232 0 0 0 .228.188" fill="#FFF" fill-rule="nonzero"/>
        <path d="M319.952 26.499a5.48 5.48 0 1 1-.009-10.96 5.48 5.48 0 0 1 .01 10.96zm0-10.576a5.1 5.1 0 1 0 5.1 5.1 5.105 5.105 0 0 0-5.1-5.104v.004z" fill="#005CB9" fill-rule="nonzero"/>
        <path d="M310.168 10.475a.718.718 0 0 0 .26 1.196c.108-.46.512-.796.995-.828a.755.755 0 0 0-.198-.345.756.756 0 0 0-1.057-.023zM327.754 15.141l3.123 2.605 1.34-1.316-3.227-3.06-.425-.4-.066-.065c.049.02.1.035.151.046.154.044.312.07.472.078.957.03 1.813-.575 2.08-1.472a2.022 2.022 0 0 0-.946-2.33 2.134 2.134 0 0 0-2.55.318 2.034 2.034 0 0 0-.608 1.574c.016.215.066.426.146.626l-.471-.46-3.302-3.111-1.416 1.339 2.614 2.71c.66.386 1.268.85 1.811 1.381.483.464.91.98 1.274 1.537zm.363-4.289c.053-.41.342-.755.743-.888a1.128 1.128 0 0 1 1.144.262c.209.202.326.477.326.764 0 .287-.117.562-.326.764-.137.137-.31.234-.5.28a1.01 1.01 0 0 1-.373.033.697.697 0 0 0-.193-.681.744.744 0 0 0-.797-.166 1.078 1.078 0 0 1-.024-.377v.01z"/>
        <path d="m315.234 12.224 2.6-2.716-1.416-1.339-3.302 3.111-.472.46c.084-.2.133-.41.147-.626a2.033 2.033 0 0 0-1.211-1.98 2.13 2.13 0 0 0-2.33.389 2.003 2.003 0 0 0-.469 2.26 2.093 2.093 0 0 0 2.486 1.163.865.865 0 0 0 .156-.046l-.066.064-.425.4-3.245 3.066 1.353 1.316 3.114-2.595a8.943 8.943 0 0 1 1.269-1.547 9.317 9.317 0 0 1 1.811-1.38zm-3.462-1.004a.735.735 0 0 0-.793.166.7.7 0 0 0-.198.327.75.75 0 0 0 0 .354 1.024 1.024 0 0 1-.373-.032 1.087 1.087 0 0 1-.5-.28 1.067 1.067 0 0 1-.388-1.083c.094-.404.415-.72.828-.815.412-.094.844.049 1.112.37.176.166.288.387.316.625.022.122.022.246 0 .368h-.004zM329.49 11.671a.776.776 0 0 0 .26-.165.717.717 0 0 0 .193-.705.738.738 0 0 0-.529-.515.76.76 0 0 0-.721.189.682.682 0 0 0-.198.345c.487.04.89.385.995.851zM328.834 19.983a8.48 8.48 0 0 0-1.373-4.602 8.867 8.867 0 0 0-2.995-2.835 9.04 9.04 0 0 0-9.015 0 8.918 8.918 0 0 0-3.005 2.844 8.491 8.491 0 0 0 .567 10.017c2.354 2.882 6.319 3.995 9.882 2.775 3.564-1.22 5.947-4.505 5.94-8.19v-.01z"/>
        <path d="m332.15 23.67 1.25-.613a6.955 6.955 0 0 0-.943-1.063 5.45 5.45 0 0 0-1.33-.92 4.245 4.245 0 0 0-1.255-.387 7.602 7.602 0 0 1-.094 3.387c-.08.345-.175.654-.265.92l1.142-.565.033.566a2.182 2.182 0 0 1-.65 1.242 2.141 2.141 0 0 1-.392.313c-.576.295-.85.157-.944.033l-1.274-1.238a9.437 9.437 0 0 1-2.042 1.96l1.075 1.05c.15.116.254.278.298.46a.71.71 0 0 1-.33.791 4.131 4.131 0 0 1-2.36.87c.241-.382.732-1.137.732-1.137-.335.06-2.83.46-4.274.212.198 1.38 1.49 2.761 2.085 3.222l.769-1.225s1.59.507 3.774-.46a6.55 6.55 0 0 1 3.396-.8c-.052-.673-.127-1.538 1.085-3.383.48-.652.734-1.435.727-2.237a6.757 6.757 0 0 0-.213-.999zM312.536 25.358l-1.26 1.234c-.117.124-.391.262-.967-.032a2.315 2.315 0 0 1-.391-.313 2.182 2.182 0 0 1-.651-1.243l.033-.566 1.141.566c-.09-.262-.183-.57-.268-.92a7.678 7.678 0 0 1-.09-3.388c-.437.062-.86.193-1.255.387a5.662 5.662 0 0 0-1.33.92c-.35.324-.665.68-.944 1.063l1.255.613c-.083.342-.14.69-.174 1.04a3.745 3.745 0 0 0 .693 2.232c1.217 1.84 1.137 2.706 1.09 3.378a6.55 6.55 0 0 1 3.396.8c2.19.967 3.774.46 3.774.46l.769 1.22c.59-.46 1.887-1.882 2.08-3.221-1.438.257-3.934-.152-4.269-.212 0 0 .472.755.731 1.137a4.131 4.131 0 0 1-2.358-.87.715.715 0 0 1-.33-.792.85.85 0 0 1 .297-.46l1.07-1.04a8.816 8.816 0 0 1-1.165-.966 9.33 9.33 0 0 1-.877-1.027z"/>
        <path d="M333.924 23.19s-1.707-2.871-4.538-2.894c.845 2.614-.566 5.43-.566 5.43l1.51-.745c-.072.38-.261.728-.543.999-.1.1-.213.188-.335.262-.43.225-.533.106-.533.106l-1.316-1.293a8.856 8.856 0 0 0 .67-9.025l2.358 1.979.26.211.236-.23 1.344-1.311.26-.258-.264-.249-2.963-2.807c1.28-.148 2.226-1.238 2.162-2.494-.063-1.257-1.113-2.251-2.402-2.275-1.29-.025-2.378.93-2.491 2.182l-3.029-2.867-.254-.24-.25.24-1.416 1.344-.254.244.24.253 1.915 2.011a9.515 9.515 0 0 0-7.514 0l1.887-1.988.245-.253-.255-.244-1.415-1.344-.255-.24-.25.24-3.028 2.867c-.113-1.253-1.202-2.207-2.491-2.182-1.29.024-2.34 1.018-2.403 2.275-.063 1.256.882 2.346 2.162 2.494l-2.967 2.807-.264.249.26.258 1.349 1.311.236.23.254-.211 2.359-1.975a8.856 8.856 0 0 0 .67 9.025l-1.316 1.266s-.104.12-.533-.106a1.886 1.886 0 0 1-.882-1.261l1.495.74s-1.415-2.811-.566-5.425c-2.83.023-4.529 2.895-4.529 2.895l1.321.658c-.137.327-.524 1.583.708 3.3 1.443 2.01.943 3.594.943 3.594s1.467-.41 3.66.7a6.113 6.113 0 0 0 3.775.584l.863 1.38s2.557-1.629 2.684-4.32c-2.123.542-5.609-.282-5.609-.282l.731 1.146a3.253 3.253 0 0 1-1.288-.552.551.551 0 0 1-.07-.083c-.297-.419.042-.644.042-.644l1.142-1.118a9.445 9.445 0 0 0 10.1 0l1.146 1.118s.34.225.042.644a.551.551 0 0 1-.07.083 3.253 3.253 0 0 1-1.288.552l.754-1.16s-3.481.824-5.604.281c.128 2.693 2.68 4.322 2.68 4.322l.868-1.38a6.113 6.113 0 0 0 3.773-.585c2.194-1.11 3.661-.7 3.661-.7s-.472-1.583.944-3.594c1.23-1.717.844-2.973.707-3.3l1.335-.644zm-11.85-13.682 1.416-1.339 3.302 3.111.471.46c-.083-.2-.132-.41-.146-.626a2.034 2.034 0 0 1 .609-1.574 2.13 2.13 0 0 1 2.538-.308 2.017 2.017 0 0 1 .943 2.32c-.265.893-1.114 1.498-2.066 1.472a2.022 2.022 0 0 1-.472-.078.817.817 0 0 1-.15-.046l.065.064.425.4 3.208 3.066-1.34 1.316-3.123-2.595a8.738 8.738 0 0 0-1.264-1.547 9.267 9.267 0 0 0-1.821-1.38l-2.595-2.716zm-13.034 8.238-1.353-1.316 3.226-3.06.425-.4.066-.065a.865.865 0 0 1-.156.046 2.098 2.098 0 0 1-2.494-1.165 2.008 2.008 0 0 1 .47-2.266 2.134 2.134 0 0 1 2.336-.388 2.037 2.037 0 0 1 1.07 2.613l.472-.46 3.302-3.111 1.415 1.339-2.585 2.71a9.413 9.413 0 0 0-3.085 2.918l-3.109 2.605zm4.477 10.627a.85.85 0 0 0-.297.46.715.715 0 0 0 .33.792c.672.526 1.498.83 2.359.87-.24-.383-.731-1.137-.731-1.137.335.06 2.83.46 4.269.211-.194 1.381-1.49 2.762-2.08 3.222l-.77-1.22s-1.594.502-3.773-.46a6.55 6.55 0 0 0-3.397-.8c.047-.673.128-1.538-1.09-3.379a3.747 3.747 0 0 1-.721-2.241c.033-.35.092-.698.174-1.04l-1.254-.612c.278-.384.594-.74.943-1.063a5.54 5.54 0 0 1 1.33-.92 4.164 4.164 0 0 1 1.255-.387 7.683 7.683 0 0 0 .09 3.387c.085.345.179.653.269.92l-1.142-.566-.033.566c.075.472.303.907.651 1.243.118.118.25.223.392.313.575.294.849.156.967.032l1.26-1.238a9.191 9.191 0 0 0 2.052 1.97l-1.053 1.077zm-2.439-8.38c0-1.63.475-3.226 1.368-4.603a8.918 8.918 0 0 1 3.005-2.844 9.04 9.04 0 0 1 9.015 0 8.867 8.867 0 0 1 2.995 2.835 8.491 8.491 0 0 1-.56 10.022c-2.353 2.883-6.32 3.998-9.886 2.777-3.565-1.222-5.947-4.51-5.937-8.197v.01zm20.52 6.958c-1.212 1.84-1.136 2.706-1.084 3.378a6.55 6.55 0 0 0-3.397.8c-2.193.967-3.774.46-3.774.46l-.769 1.22c-.594-.46-1.887-1.882-2.085-3.221 1.444.257 3.94-.152 4.274-.212 0 0-.472.755-.731 1.137a4.131 4.131 0 0 0 2.359-.87.71.71 0 0 0 .33-.792.826.826 0 0 0-.297-.46l-1.076-1.05a9.437 9.437 0 0 0 2.043-1.96l1.273 1.238c.118.125.392.263.944-.032.143-.089.274-.194.391-.313.348-.336.576-.771.651-1.242l-.033-.567-1.141.567c.104-.303.192-.61.264-.92a7.598 7.598 0 0 0 .094-3.388c.437.063.86.194 1.255.386.487.242.936.552 1.33.92.351.323.667.68.944 1.064l-1.25.612c.085.342.143.69.174 1.04.01.787-.23 1.557-.688 2.205z" fill="#005CB9" fill-rule="nonzero"/>
        <path d="M311.46 10.226a1.126 1.126 0 0 0-1.101-.334 1.095 1.095 0 0 0-.81.802c-.094.394.044.806.36 1.07.137.135.31.232.5.28.12.034.247.044.372.032a.75.75 0 0 1 0-.354.7.7 0 0 1 .198-.327.735.735 0 0 1 .793-.166 1.078 1.078 0 0 0 0-.368 1.03 1.03 0 0 0-.312-.635zm-.754.92a1.06 1.06 0 0 0-.298.54.776.776 0 0 1-.259-.167.717.717 0 0 1-.193-.704.738.738 0 0 1 .528-.515.76.76 0 0 1 .722.188.755.755 0 0 1 .198.346c-.264.019-.512.13-.698.313zM328.495 11.174a.729.729 0 0 1 .438.212.691.691 0 0 1 .194.681c.125.013.251.002.372-.032.19-.047.364-.144.5-.28a1.062 1.062 0 0 0-.062-1.459 1.129 1.129 0 0 0-1.494-.07c-.173.17-.284.39-.316.626a1.082 1.082 0 0 0 0 .368.743.743 0 0 1 .368-.046zm.198-.7a.76.76 0 0 1 .721-.188c.258.067.46.264.529.515a.717.717 0 0 1-.194.705.776.776 0 0 1-.26.165 1.106 1.106 0 0 0-.994-.828.68.68 0 0 1 .198-.368z" fill="#005CB9" fill-rule="nonzero"/>
        <g>
            <path d="M322.161 20.441v3.882c.183-.054.36-.124.53-.21v-3.672h-.53zM323.224 23.689c.295-.41.455-.895.46-1.394.022-.35-.009-.703-.092-1.045-.06-.266-.099-.537-.115-.809h-.257v3.248h.004zM321.098 20.441v4.235c.174-.07.352-.13.534-.179v-4.02l-.534-.036zM316.915 22.295c.007.499.167.984.46 1.394V20.44h-.258a4.908 4.908 0 0 1-.115.809c-.081.342-.11.694-.087 1.045zM317.913 20.441v3.672c.17.084.347.155.53.21V20.44h-.53zM318.976 20.441v4.02c.18.05.357.109.53.18v-4.2h-.53zM320.035 20.441v4.507c.097.068.187.146.267.233.08-.086.17-.164.267-.233v-4.507h-.534z"/>
            <path fill="#E1251B" fill-rule="nonzero" d="M318.456 20.441v3.882l.35.103.184.058v-4.02zM317.38 20.441v3.248c.054.066.114.13.179.187.108.092.227.172.354.237v-3.672h-.534zM319.506 20.441v4.235c.187.074.365.17.529.286v-4.52h-.53zM322.69 20.441v3.672c.127-.065.246-.145.355-.237.064-.058.124-.12.18-.187V20.44h-.535zM321.632 20.441v4.02l.18-.053.35-.107v-3.86zM320.569 20.441v4.507c.164-.115.341-.211.529-.286v-4.22h-.53z"/>
            <path d="M323.482 20.441h-6.36a4.908 4.908 0 0 1-.115.809 3.533 3.533 0 0 0-.092 1.045c.007.499.167.984.46 1.394.054.067.114.13.18.187.108.092.226.172.354.237.17.084.347.155.529.21l.35.107.184.054c.18.049.357.108.529.178.188.075.365.17.53.286.097.068.186.146.266.233.081-.086.17-.164.267-.233.164-.115.342-.211.53-.286.173-.07.352-.13.533-.178l.18-.054.35-.107c.182-.054.36-.124.529-.21.128-.064.247-.144.354-.237.065-.058.125-.12.18-.187.294-.41.455-.895.46-1.394.021-.35-.01-.703-.092-1.045a4.907 4.907 0 0 1-.106-.809z"/>
            <path d="M323.661 20.25a5.659 5.659 0 0 1 .46-2.266h-7.653c.308.718.465 1.488.46 2.265v.192c-.036.71-.267 1.117-.207 1.867 0 .609.23 1.196.65 1.649.157.145.337.266.533.357.17.08.347.146.53.197l.533.156c.18.055.357.119.53.192a2.012 2.012 0 0 1 .796.594 2.012 2.012 0 0 1 .796-.594c.177-.071.358-.132.543-.183l.53-.157c.18-.051.358-.117.528-.196.196-.091.376-.212.534-.357.419-.453.65-1.04.65-1.649.059-.75-.171-1.157-.208-1.867-.005-.071-.005-.134-.005-.2zm.028 2.045a2.425 2.425 0 0 1-.46 1.394c-.054.067-.114.13-.18.187a1.867 1.867 0 0 1-.354.237c-.17.086-.346.156-.53.21l-.35.107-.179.054a4.67 4.67 0 0 0-.533.178c-.188.075-.366.17-.53.286a1.824 1.824 0 0 0-.267.233 1.614 1.614 0 0 0-.267-.233 2.517 2.517 0 0 0-.529-.286c-.172-.07-.349-.13-.53-.178l-.183-.054-.35-.107a3.414 3.414 0 0 1-.53-.21 1.867 1.867 0 0 1-.354-.237 1.755 1.755 0 0 1-.179-.187 2.46 2.46 0 0 1-.46-1.394c-.022-.35.01-.703.092-1.045.06-.266.099-.537.115-.809h6.36c.016.272.054.543.115.809.08.342.108.695.083 1.045z" fill="#005CB9" fill-rule="nonzero"/>
        </g>
        <g fill="#005CB9" fill-rule="nonzero">
            <path d="m315.464 27.444.48-.67a.3.3 0 0 0 .081-.201.37.37 0 0 0-.163-.258.312.312 0 0 0-.48.085l-.479.66-.369-.262.48-.651a.602.602 0 0 1 .359-.272c.244-.008.483.072.671.225.647.468.408.792.273.974l-.479.642-.374-.272zM314.198 26.507l-.412-.468.456-1.092-.835.624-.258-.31 1.093-.88.402.468-.48 1.13.85-.69.263.31zM312.947 24.891l-.235-.412 1.247-.68.23.418zM312.655 23.697l.182.468-.264.094-.527-1.405.264-.094.182.468 1.069-.389.163.436zM312.017 22.722l-.216-1.222.269-.047.134.778.293-.047-.13-.731.269-.047.129.73.297-.046-.139-.796.273-.047.216 1.241zM311.763 21.06l.043-.694a1.33 1.33 0 0 1 .163-.623.634.634 0 0 1 .604-.272.621.621 0 0 1 .633.469c.023.155.023.313 0 .468l-.043.703-1.4-.052zm1.175-.394v-.197c.024-.304-.077-.506-.408-.524-.431-.029-.455.346-.48.468v.178l.888.075zM313.153 18.502c.053 0 .211.07.312-.183 0-.033.091-.225-.062-.286-.063 0-.115 0-.183.085l-.234.346c-.068.099-.235.352-.513.244-.278-.108-.34-.347-.159-.806.24-.604.533-.525.676-.468l-.172.435c-.043 0-.187-.07-.269.136-.048.122 0 .225.063.253.062.028.158-.047.196-.103l.178-.262c.129-.188.282-.412.56-.305.279.108.312.469.159.843a.981.981 0 0 1-.384.502.44.44 0 0 1-.34 0l.172-.431zM313.158 16.895l-.273.426-.235-.145.805-1.255.24.145-.283.44.959.59-.25.394zM313.988 15.35l.407-.394 1.477.52-.374.365-.288-.117-.48.468.12.277-.33.328-.532-1.448zm.958.27-.58-.262.254.577.326-.314zM315.574 14.393l-.436.268-.149-.235 1.285-.782.149.23-.446.276.604.937-.403.243zM316.552 13.527l1.194-.426.091.248-.753.272.101.271.71-.257.095.248-.709.258.1.28.777-.28.096.252-1.213.436zM318.676 13.86c0 .056.038.21.312.173.043 0 .249-.033.225-.192 0-.066-.043-.103-.158-.113l-.427-.028c-.12 0-.427-.033-.48-.323-.052-.29.145-.468.643-.53.657-.088.724.202.748.347l-.48.066c0-.042 0-.192-.249-.16-.134 0-.21.094-.196.174.014.08.12.112.187.117l.32.023c.236 0 .504.038.547.328.044.29-.254.469-.676.548a.979.979 0 0 1-.632-.08.466.466 0 0 1-.173-.285l.489-.066zM321.567 13.42c0-.146-.106-.216-.235-.24-.278-.042-.403.155-.446.403a.367.367 0 0 0 .04.295.383.383 0 0 0 .248.174c.244.042.292-.099.311-.15l.48.08c-.082.426-.619.374-.834.341a1.025 1.025 0 0 1-.6-.29.677.677 0 0 1-.13-.558.729.729 0 0 1 .303-.468.895.895 0 0 1 .685-.084.93.93 0 0 1 .58.267.396.396 0 0 1 .087.313l-.49-.084zM322.64 13.391c.231-.045.47-.014.681.089a.73.73 0 0 1 .49.396.702.702 0 0 1-.01.62.763.763 0 0 1-.482.4.782.782 0 0 1-.626-.09.748.748 0 0 1-.474-.397.72.72 0 0 1-.005-.61c.08-.192.24-.34.441-.408h-.014zm.173 1.157c.307.136.48-.075.542-.253a.46.46 0 0 0 .048-.36.36.36 0 0 0-.211-.207c-.283-.121-.45.042-.551.263-.101.22-.115.44.187.566l-.015-.009zM324.918 14.46l.44.355-.383 1.485-.407-.328.09-.286-.526-.421-.269.145-.364-.29 1.419-.66zm-.178.936.211-.586-.56.305.35.281zM325.623 16.46c-.044.032-.173.13 0 .35.024.033.148.202.278.108.052-.037.071-.089.024-.196l-.168-.38c-.048-.108-.173-.384.072-.553.244-.168.48-.093.776.31.389.52.159.716.039.805l-.278-.374c.033-.029.163-.113.028-.29-.081-.109-.182-.141-.254-.09-.072.052-.043.155 0 .216l.13.29c.09.206.196.469-.048.623-.245.155-.561 0-.806-.328a.897.897 0 0 1-.225-.58.416.416 0 0 1 .182-.286l.25.374zM327.08 17.49l-.206-.469.254-.112.609 1.359-.26.107-.21-.468-1.045.468-.187-.421zM327.67 20.108c.143-.046.163-.187.148-.309a.42.42 0 0 0-.18-.3.44.44 0 0 0-.352-.065.453.453 0 0 0-.334.184.432.432 0 0 0-.069.369c.017.083.037.166.063.248l.273-.038-.048-.346.268-.038.106.773-.753.103a3.41 3.41 0 0 1-.177-.716 1.114 1.114 0 0 1 .057-.628.675.675 0 0 1 .542-.384.75.75 0 0 1 .595.168c.161.185.26.414.282.656a.918.918 0 0 1-.081.619.37.37 0 0 1-.278.164l-.062-.46zM328.101 21.444l-.844-.094a.352.352 0 0 0-.22.028.349.349 0 0 0-.144.267.29.29 0 0 0 .058.256c.06.071.15.112.244.11l.825.093-.048.44-.83-.089a.606.606 0 0 1-.417-.178.942.942 0 0 1-.124-.679c.062-.777.493-.712.723-.712l.806.094-.029.464zM327.622 23.547l-.216.52-1.568.075.202-.469h.306l.26-.613-.221-.211.177-.422 1.06 1.12zm-.993.117h.638l-.48-.436-.158.436zM326.807 25.186l-.48.605c-.187.234-.268.314-.402.337a.331.331 0 0 1-.288-.075.26.26 0 0 1-.115-.276.671.671 0 0 1 .105-.244c-.206.248-.311.187-.513.084a2.01 2.01 0 0 0-.32-.15l.31-.388c.101.04.198.09.288.15.149.084.202.117.331-.043l.125-.154-.436-.333.287-.36 1.108.847zm-.772 0-.11.136a.768.768 0 0 0-.11.16.152.152 0 0 0 .052.192c.134.103.25-.038.336-.141l.105-.136-.273-.21zM325.392 26.803l-.58.407c-.173.136-.377.23-.594.276a.652.652 0 0 1-.6-.285.59.59 0 0 1 0-.787c.105-.128.23-.24.37-.328l.58-.412.824 1.129zm-1.06-.638-.167.118c-.25.178-.345.379-.153.641a.446.446 0 0 0 .68.042l.154-.103-.513-.698z"/>
            <g>
                <path d="M317.554 26.976c-.109.032-.222.05-.335.056l-.11.29c.082.001.164-.01.244-.032l-.37.988.451.164.48-1.33-.36-.136zM318.14 27.2l1.36.22-.047.282-.83 1.002-.551-.089.892-.988-.873-.14zM320.057 28.456c0 .08.096.136.235.127.268 0 .292-.192.282-.469a.533.533 0 0 1-.397.164.62.62 0 0 1-.446-.108.41.41 0 0 1-.173-.318c0-.286.259-.501.695-.52a.653.653 0 0 1 .681.29c.069.131.108.275.115.422a.756.756 0 0 1-.163.543.806.806 0 0 1-.594.23.864.864 0 0 1-.576-.136.325.325 0 0 1-.12-.23l.46.005zm.48-.637c0-.089-.068-.215-.279-.21-.21.004-.268.112-.264.233.005.122.082.22.278.211.197-.01.278-.103.274-.234h-.01zM321.274 27.444a.758.758 0 0 1 .48-.314c.189-.071.4-.06.58.033a.727.727 0 0 1 .35.469c.09.19.082.412-.02.596a.68.68 0 0 1-.503.34.754.754 0 0 1-.556 0 .788.788 0 0 1-.364-.491.762.762 0 0 1 .033-.633zm.801.853a.229.229 0 0 0 .158-.127.811.811 0 0 0-.029-.384 1.203 1.203 0 0 0-.134-.314.199.199 0 0 0-.25-.084c-.133.038-.239.117-.119.53.082.285.168.43.374.374v.005z"/>
            </g>
        </g>
        <path fill="#005CB9" fill-rule="nonzero" d="M279.586 43.491h6.19L306.51 0h-6.19z"/>
        <path fill="#FFF" fill-rule="nonzero" d="M311.341 0h-5.022l-21.21 43.491h5.022z"/>
        <path d="M323.744 17.958c-.296.72-.45 1.49-.456 2.268v.195c.017.265.053.53.11.79.089.361.12.734.095 1.106a2.505 2.505 0 0 1-.638 1.66c-.152.148-.328.27-.52.359-.17.08-.346.147-.525.2a4.624 4.624 0 0 1-.315.095l-.215.068a4.42 4.42 0 0 0-.525.19c-.191.084-.37.196-.529.331a1.565 1.565 0 0 0-.256.263 1.728 1.728 0 0 0-.25-.263 2.284 2.284 0 0 0-.535-.33 4.513 4.513 0 0 0-.524-.191l-.201-.06-.329-.104a3.458 3.458 0 0 1-.524-.2 1.876 1.876 0 0 1-.52-.358 2.491 2.491 0 0 1-.64-1.66 3.608 3.608 0 0 1 .096-1.107 6 6 0 0 0 .11-.789v-.195a5.948 5.948 0 0 0-.457-2.268h7.544m.027 0h-7.593a5.83 5.83 0 0 1 .456 2.3v.195c-.037.721-.265 1.134-.205 1.896-.001.618.228 1.214.643 1.674.156.147.335.27.53.363.168.081.344.148.524.2l.525.158c.18.056.357.12.53.195a1.987 1.987 0 0 1 .789.603 1.987 1.987 0 0 1 .79-.603c.175-.078.354-.147.538-.204l.525-.159c.18-.052.355-.119.524-.2.195-.092.373-.215.53-.362.415-.46.644-1.056.643-1.674.06-.762-.169-1.175-.205-1.896v-.195c-.004-.79.15-1.572.456-2.3v.009z" fill="#005CB9" fill-rule="nonzero"/>
    </g>
</svg>
