<svg width="85" height="52" viewBox="0 0 85 52" xmlns="http://www.w3.org/2000/svg" xmlns:xlink="http://www.w3.org/1999/xlink">
    <defs>
        <path id="a" d="M0 0h33v52H0z"/>
    </defs>
    <g fill="none" fill-rule="evenodd">
        <path fill="#E1251B" d="M38.477 0 13 52h46.53L85 0z"/>
        <path d="M60.429 14.729a.221.221 0 0 0 .101 0c.153-.057.293-.147.408-.263a1.186 1.186 0 1 0-1.99-1.118.302.302 0 0 0 .05.234c.049.066.124.107.207.112.243.02.473.125.648.297.14.142.237.32.28.514.017.08.068.15.14.19.04.022.087.034.134.034m-22.58.01a.274.274 0 0 0 .134-.033.313.313 0 0 0 .145-.19c.088-.46.479-.8.946-.822a.273.273 0 0 0 .251-.346 1.151 1.151 0 0 0-.307-.56 1.187 1.187 0 0 0-1.678 1.678c.116.116.255.206.408.263a.219.219 0 0 0 .1 0m7.104-4.742.101.095 1.678 1.633.106.1-.1.107-2.238 2.415a.286.286 0 0 0 0 .358.27.27 0 0 0 .23.118.371.371 0 0 0 .111 0 10.742 10.742 0 0 1 8.687 0 .252.252 0 0 0 .111 0 .286.286 0 0 0 .235-.118.279.279 0 0 0 0-.358l-2.237-2.415-.1-.106.1-.101 1.678-1.633.107-.095.1.095 3.59 3.484c.053.05.124.078.197.078a.341.341 0 0 0 .1 0 .28.28 0 0 0 .18-.24 2.638 2.638 0 0 1 .687-1.633 2.635 2.635 0 0 1 3.73 0 2.627 2.627 0 0 1-1.548 4.473.28.28 0 0 0-.235.184.291.291 0 0 0 .067.297l3.518 3.41.106.107-.106.106-1.594 1.594-.095.095-.1-.09-2.797-2.399a.274.274 0 0 0-.358 0 .28.28 0 0 0-.078.347 10.693 10.693 0 0 1-.778 10.685.28.28 0 0 0 .033.358l1.527 1.52a.462.462 0 0 0 .336.118c.224-.013.44-.08.632-.195.16-.104.307-.225.442-.358.375-.372.628-.85.721-1.37a.285.285 0 0 0-.28-.33.332.332 0 0 0-.128 0l-1.119.56c.175-.473.32-.954.437-1.443a9.322 9.322 0 0 0 .062-4.25 5.598 5.598 0 0 1 3.356 1.677c.456.436.865.92 1.218 1.443l-1.28.654a.28.28 0 0 0-.135.358c.152.386.56 1.784-.816 3.746a6.098 6.098 0 0 0-1.247 4.183 4.35 4.35 0 0 0-.526 0 7.83 7.83 0 0 0-3.597.973A6.747 6.747 0 0 1 54.44 39a5.821 5.821 0 0 1-1.119-.095h-.056a.285.285 0 0 0-.24.134l-.867 1.398a8.35 8.35 0 0 1-1.248-1.191 6.324 6.324 0 0 1-1.538-3.294 9.233 9.233 0 0 0 1.768.152 21.847 21.847 0 0 0 3.976-.437l-.514.828a.285.285 0 0 0 0 .319.285.285 0 0 0 .23.117h.066a4.074 4.074 0 0 0 1.678-.75c.041-.041.079-.086.113-.133a.89.89 0 0 0 .184-.7.758.758 0 0 0-.28-.463l-1.337-1.342a.277.277 0 0 0-.207-.079.292.292 0 0 0-.15.04 10.687 10.687 0 0 1-11.668 0 .297.297 0 0 0-.156-.045.273.273 0 0 0-.197.084l-1.348 1.342a.811.811 0 0 0-.28.464c-.034.248.033.5.185.699.036.047.076.092.118.134.496.373 1.07.629 1.678.749h.067c.09-.001.176-.045.23-.117a.285.285 0 0 0 0-.319l-.515-.828c1.31.267 2.64.413 3.977.437a9.225 9.225 0 0 0 1.767-.152 6.311 6.311 0 0 1-1.538 3.294c-.373.439-.791.838-1.247 1.19l-.867-1.397a.28.28 0 0 0-.24-.134h-.057c-.368.068-.743.1-1.119.095a6.745 6.745 0 0 1-3.182-.777 7.826 7.826 0 0 0-3.59-.973c-.176-.01-.352-.01-.526 0 .113-1.5-.33-2.99-1.248-4.183-1.37-1.962-.973-3.354-.817-3.746a.28.28 0 0 0-.128-.358l-1.286-.654a8.773 8.773 0 0 1 1.28-1.443 5.598 5.598 0 0 1 3.356-1.677 9.237 9.237 0 0 0 .067 4.25c.113.49.256.97.43 1.442l-1.118-.559a.332.332 0 0 0-.128 0 .262.262 0 0 0-.168.056.276.276 0 0 0-.112.274c.094.52.346.998.721 1.37.135.133.284.254.442.358.192.115.41.182.632.195a.473.473 0 0 0 .337-.118l1.56-1.57a.28.28 0 0 0 .033-.358 10.683 10.683 0 0 1-.777-10.68.269.269 0 0 0-.084-.346.26.26 0 0 0-.168-.062.28.28 0 0 0-.185.067l-2.796 2.399-.107.09-.095-.096-1.594-1.593-.106-.106.112-.107 3.512-3.41a.29.29 0 0 0 .073-.297.279.279 0 0 0-.235-.184 2.628 2.628 0 1 1 2.92-2.84c.01.108.082.202.184.24H41a.29.29 0 0 0 .195-.078l3.635-3.434.101-.095" fill="#FFF"/>
        <path d="M49.12 18.24a6.32 6.32 0 1 0 0 12.637 6.32 6.32 0 0 0 6.32-6.319c0-3.49-2.83-6.32-6.32-6.324v.006zm0 13.1a6.789 6.789 0 1 1-.012-13.575 6.789 6.789 0 0 1 6.796 6.782v.011a6.789 6.789 0 0 1-6.784 6.783z" fill="#005CB9"/>
        <path d="M62.93 33.018c-1.438 2.236-1.348 3.288-1.287 4.104a7.608 7.608 0 0 0-4.027.973c-2.6 1.175-4.475.559-4.475.559l-.912 1.482c-.705-.56-2.237-2.287-2.472-3.914 1.712.313 4.67-.185 5.068-.257 0 0-.56.916-.867 1.38a4.83 4.83 0 0 0 2.797-1.056c.327-.2.486-.59.39-.961a.999.999 0 0 0-.352-.56l-1.274-1.274a11.418 11.418 0 0 0 2.422-2.382l1.509 1.503c.14.152.464.32 1.119-.039.17-.107.325-.235.464-.38.413-.408.683-.937.772-1.51L61.766 30l-1.353.687c.123-.367.227-.74.313-1.118a9.462 9.462 0 0 0 .112-4.115c.518.077 1.02.236 1.487.47.578.293 1.11.67 1.577 1.118.416.392.791.824 1.119 1.291l-1.482.744c.101.415.17.838.207 1.264a4.608 4.608 0 0 1-.816 2.678zm-24.331-8.454c0-1.98.563-3.919 1.622-5.592.9-1.415 2.12-2.599 3.563-3.455a10.497 10.497 0 0 1 10.689 0 10.633 10.633 0 0 1 3.55 3.444c3.106 4.913 1.64 11.413-3.275 14.517-4.914 3.105-11.416 1.638-14.522-3.274a10.522 10.522 0 0 1-1.627-5.652v.012zm2.892 10.182c-.176.143-.3.339-.353.56a.878.878 0 0 0 .391.961 4.83 4.83 0 0 0 2.797 1.056c-.285-.464-.867-1.38-.867-1.38.397.072 3.356.558 5.062.256-.229 1.678-1.767 3.355-2.466 3.914l-.912-1.481s-1.891.61-4.475-.56a7.607 7.607 0 0 0-4.027-.972c.056-.816.151-1.868-1.292-4.105a4.634 4.634 0 0 1-.856-2.722c.04-.426.11-.848.207-1.264l-1.488-.744c.33-.466.706-.898 1.119-1.291.468-.448 1-.826 1.577-1.119.468-.235.97-.394 1.488-.469a9.546 9.546 0 0 0 .107 4.115c.1.42.212.794.318 1.118l-1.354-.688-.039.688c.09.573.36 1.102.773 1.51.14.144.296.271.464.38.682.358 1.007.19 1.147.04l1.493-1.504c.32.431.671.839 1.051 1.218.427.429.89.822 1.381 1.174l-1.246 1.31zm-5.308-12.911-1.605-1.599 3.825-3.718.504-.486.077-.08a.993.993 0 0 1-.184.057c-.19.057-.388.089-.587.095a2.482 2.482 0 1 1 2.394-2.32 2.57 2.57 0 0 1-.168.76l.56-.56 3.915-3.78 1.678 1.628-3.065 3.293a11.276 11.276 0 0 0-3.658 3.545l-3.686 3.165zm15.454-10.008 1.678-1.628 3.915 3.78.56.56a2.4 2.4 0 0 1-.174-.761c-.043-.71.22-1.406.722-1.912a2.478 2.478 0 0 1 3.493 3.513 2.478 2.478 0 0 1-1.816.72 2.31 2.31 0 0 1-.559-.096.899.899 0 0 1-.179-.056l.078.079.504.486 3.803 3.724-1.588 1.599-3.703-3.154a10.623 10.623 0 0 0-1.499-1.878 11.032 11.032 0 0 0-2.159-1.678l-3.076-3.298zm14.05 16.623s-2.025-3.49-5.38-3.517c1 3.176-.672 6.598-.672 6.598l1.79-.906c-.086.461-.31.884-.644 1.214a2.097 2.097 0 0 1-.397.318c-.508.274-.632.128-.632.128l-1.56-1.57a10.981 10.981 0 0 0 .794-10.965l2.796 2.404.309.257.28-.28 1.593-1.593.307-.313-.312-.302-3.513-3.411a2.907 2.907 0 1 0-.682-5.775 2.908 2.908 0 0 0-2.556 2.633l-3.591-3.484-.302-.29-.297.29-1.678 1.633-.302.297.286.307 2.27 2.443a11.034 11.034 0 0 0-8.91 0l2.238-2.415.29-.308-.302-.296-1.678-1.632-.302-.291-.296.29-3.59 3.484a2.908 2.908 0 1 0-3.24 3.142l-3.517 3.41-.314.303.308.313 1.6 1.594.28.28.301-.258 2.797-2.398a10.981 10.981 0 0 0 .794 10.964l-1.56 1.537s-.123.146-.632-.128a2.306 2.306 0 0 1-1.046-1.531l1.772.899s-1.678-3.416-.67-6.592c-3.357.028-5.37 3.517-5.37 3.517l1.566.8c-.162.397-.621 1.923.839 4.009 1.712 2.443 1.118 4.366 1.118 4.366s1.74-.497 4.34.85a7.096 7.096 0 0 0 4.475.71l1.024 1.678s3.031-1.98 3.183-5.25c-2.517.659-6.651-.342-6.651-.342l.868 1.393a3.817 3.817 0 0 1-1.528-.672.682.682 0 0 1-.083-.1c-.353-.509.05-.783.05-.783l1.354-1.358a10.973 10.973 0 0 0 11.975 0l1.359 1.358s.402.274.05.783a.594.594 0 0 1-.084.1 3.809 3.809 0 0 1-1.527.672l.895-1.41s-4.128 1.001-6.645.341c.151 3.271 3.177 5.25 3.177 5.25l1.03-1.677c1.528.26 3.1.01 4.474-.71 2.6-1.347 4.34-.85 4.34-.85s-.559-1.923 1.12-4.367c1.459-2.085 1-3.612.838-4.009l1.583-.782z" fill="#005CB9"/>
        <path d="M38.157 13.817a1.293 1.293 0 0 0-.352.655.886.886 0 1 1 1.18-1.034 1.307 1.307 0 0 0-.828.38m.895-1.119a1.315 1.315 0 1 0-1.84 1.868c.163.165.368.282.593.34a1.2 1.2 0 0 0 .441.04.949.949 0 0 1 0-.43.853.853 0 0 1 .236-.398.855.855 0 0 1 .94-.201c.024-.148.024-.3 0-.447a1.262 1.262 0 0 0-.37-.772M59.484 13a.886.886 0 1 1 .945 1.455 1.319 1.319 0 0 0-1.18-1.007.833.833 0 0 1 .235-.447m-.235.85a.858.858 0 0 1 .52.257.846.846 0 0 1 .23.397.876.876 0 0 1 0 .43c.148.015.298.003.441-.039.225-.056.43-.174.593-.34a1.314 1.314 0 0 0-1.845-1.857 1.33 1.33 0 0 0-.375.76c-.025.148-.025.3 0 .448a.861.861 0 0 1 .436-.056" fill="#005CB9"/>
        <path fill="#E1251B" d="M46.882 23.803v4.859l.425.129.224.073V23.83zM45.574 23.803v4.065c.066.084.14.163.218.235.131.115.276.214.43.297v-4.597h-.648zM48.158 23.803v5.3c.227.094.444.214.642.359v-5.659h-.642zM52.028 23.803V28.4a2.27 2.27 0 0 0 .43-.297c.08-.072.152-.151.219-.235v-4.065h-.649zM50.742 23.803v5.033l.218-.067.425-.135v-4.83zM49.45 23.803v5.642c.199-.145.415-.265.643-.358v-5.284h-.643z"/>
        <path d="M53.242 26.124a3.097 3.097 0 0 1-.56 1.744 1.702 1.702 0 0 1-.218.235 2.25 2.25 0 0 1-.43.296 3.643 3.643 0 0 1-.644.263l-.425.134-.218.067c-.22.062-.437.137-.648.225a3.083 3.083 0 0 0-.644.357 2.354 2.354 0 0 0-.325.291 1.96 1.96 0 0 0-.324-.291 3.047 3.047 0 0 0-.643-.357 5.577 5.577 0 0 0-.643-.225l-.224-.067-.425-.134a4.007 4.007 0 0 1-.643-.263 2.271 2.271 0 0 1-.431-.296 2.164 2.164 0 0 1-.218-.235 3.134 3.134 0 0 1-.56-1.744c-.025-.44.012-.88.113-1.308.074-.333.12-.672.14-1.012H53c.02.34.066.679.14 1.012.096.429.13.87.1 1.308m-.033-2.561a7.292 7.292 0 0 1 .56-2.835h-9.302c.374.898.565 1.862.56 2.835v.24c-.046.89-.325 1.399-.252 2.337-.001.762.28 1.497.788 2.064.192.182.411.332.65.447.206.1.422.183.642.246l.65.196c.218.068.433.148.642.24a2.442 2.442 0 0 1 .968.744 2.442 2.442 0 0 1 .968-.744c.215-.089.435-.165.66-.23l.643-.195c.22-.064.436-.146.643-.246.238-.114.457-.265.649-.447.508-.567.79-1.302.789-2.063.072-.94-.207-1.449-.252-2.337-.006-.09-.006-.168-.006-.252M43.884 32.459l.56-.8a.363.363 0 0 0 .095-.24.439.439 0 0 0-.19-.307.358.358 0 0 0-.56.1l-.56.789-.43-.314.56-.777a.704.704 0 0 1 .42-.324 1.17 1.17 0 0 1 .782.269c.756.559.476.944.319 1.162l-.56.766-.436-.324zM42.408 31.34l-.481-.559.531-1.302-.973.743-.302-.368 1.275-1.052.47.56-.56 1.347.99-.822.308.37zM40.948 29.412l-.274-.492 1.454-.811.269.498zM40.607 27.986l.212.559-.307.112-.616-1.678.308-.112.213.56 1.247-.464.19.52zM39.863 26.823l-.252-1.46.313-.055.157.927.341-.055-.151-.872.313-.057.151.873.347-.056-.162-.95.319-.056.252 1.482zM40.937 24.368v-.235c.028-.363-.09-.604-.476-.626-.503-.034-.53.414-.559.56v.212l1.035.09zm-1.37.47.05-.828c.003-.26.068-.514.19-.743a.735.735 0 0 1 .705-.325.727.727 0 0 1 .738.56 1.95 1.95 0 0 1 0 .559l-.05.838-1.634-.061zM41.189 21.785c.06 0 .245.084.363-.218 0-.04.106-.268-.073-.341-.072 0-.134 0-.212.1l-.275.414c-.077.118-.273.42-.598.291-.324-.129-.397-.414-.184-.962.28-.72.62-.626.788-.559l-.2.52c-.051 0-.219-.084-.315.162-.055.146 0 .269.074.302.072.034.184-.056.228-.123l.207-.313c.152-.223.33-.492.655-.363.324.128.364.559.184 1.006-.08.243-.236.453-.447.598a.505.505 0 0 1-.397 0l.202-.514zM41.194 19.867l-.319.509-.274-.173.94-1.499.28.173-.33.526 1.118.705-.29.47zM43.28 18.346l-.677-.313.297.688.38-.375zm-1.119-.324.476-.47 1.723.62-.437.437-.335-.14-.56.56.14.33-.386.39-.62-1.727zM44.013 16.881l-.509.32-.173-.28 1.499-.934.173.274-.52.33.705 1.118-.47.29zM45.154 15.847l1.393-.509.106.296-.879.325.118.324.828-.307.112.296-.828.307.117.336.907-.336.112.302-1.415.52zM47.632 16.244c0 .067.044.252.363.207.05 0 .291-.04.263-.23 0-.078-.05-.122-.184-.134l-.498-.033c-.14 0-.498-.04-.56-.386-.061-.347.168-.56.75-.632.766-.106.845.24.873.414l-.56.078c0-.05 0-.229-.29-.19-.157 0-.247.112-.23.207.017.095.14.134.218.14l.375.028c.274 0 .587.044.638.391.05.347-.297.56-.79.654-.249.054-.51.02-.737-.095a.557.557 0 0 1-.202-.34l.57-.08zM51.005 15.718c0-.173-.123-.257-.274-.285-.325-.05-.47.185-.52.481a.447.447 0 0 0 .308.552l.027.007c.285.05.341-.117.364-.179l.559.095c-.095.51-.722.448-.973.408a1.186 1.186 0 0 1-.7-.346.821.821 0 0 1-.15-.666.873.873 0 0 1 .352-.559c.241-.141.53-.178.8-.1.256.021.496.134.676.318a.48.48 0 0 1 .101.375l-.57-.1zM52.459 17.066c.358.162.559-.09.632-.302a.557.557 0 0 0 .056-.43.424.424 0 0 0-.246-.247c-.33-.145-.526.05-.643.313-.118.263-.135.526.217.677l-.016-.011zm-.201-1.381c.269-.054.548-.017.794.106a.855.855 0 0 1 .56 1.213.895.895 0 0 1-1.293.37.878.878 0 0 1-.56-1.203.857.857 0 0 1 .515-.486h-.016zM54.707 18.078l.246-.7-.654.364.408.336zm.207-1.119.515.425-.448 1.773-.475-.392.106-.34-.615-.504-.313.174-.425-.347 1.655-.789zM55.736 19.347c-.05.04-.2.157 0 .42.028.039.174.24.325.128.061-.045.084-.106.028-.235l-.196-.453c-.056-.128-.201-.458.084-.66.285-.2.56-.111.906.37.453.62.185.855.045.961l-.325-.447c.04-.034.19-.134.034-.347-.095-.128-.213-.167-.296-.106-.084.062-.05.185 0 .257l.15.347c.107.246.23.559-.055.744-.286.184-.655 0-.94-.392a1.082 1.082 0 0 1-.263-.693.5.5 0 0 1 .213-.341l.29.447zM57.437 20.577l-.24-.559.296-.134.71 1.621-.302.129-.246-.56-1.22.56-.217-.503zM58.125 23.703c.168-.056.19-.224.173-.37a.504.504 0 0 0-.62-.435.526.526 0 0 0-.47.66c.019.1.043.198.072.296l.32-.045-.057-.414.314-.045.122.923-.878.123a4.122 4.122 0 0 1-.206-.855 1.36 1.36 0 0 1 .066-.75.79.79 0 0 1 .633-.458.86.86 0 0 1 .693.201c.189.22.304.494.33.783.054.25.02.51-.095.738a.431.431 0 0 1-.324.196l-.073-.548zM58.628 25.296l-.984-.111a.405.405 0 0 0-.258.033.42.42 0 0 0-.167.319.352.352 0 0 0 .352.436l.962.112-.056.525-.968-.106a.698.698 0 0 1-.486-.212 1.144 1.144 0 0 1-.146-.811c.073-.928.577-.85.845-.85l.94.112-.034.553zM56.91 27.947h.745l-.56-.52-.184.52zm1.159-.14-.252.62-1.829.09.235-.559h.358l.302-.733-.257-.251.206-.504 1.237 1.337zM56.218 29.764l-.129.162a.895.895 0 0 0-.129.19.185.185 0 0 0 .061.23c.158.122.292-.045.392-.168l.123-.162-.318-.252zm.9 0-.56.721c-.217.28-.312.375-.469.403a.38.38 0 0 1-.336-.09.313.313 0 0 1-.134-.33.806.806 0 0 1 .123-.29c-.24.296-.363.223-.599.1a2.304 2.304 0 0 0-.375-.179l.365-.464c.117.049.229.109.335.18.174.1.235.14.386-.051l.145-.185-.509-.397.336-.43 1.292 1.012zM54.232 30.933l-.196.14c-.291.212-.402.452-.18.765a.515.515 0 0 0 .795.05l.18-.122-.6-.833zm1.236.76-.677.486a1.67 1.67 0 0 1-.693.33.755.755 0 0 1-.7-.34.715.715 0 0 1 0-.94c.122-.153.267-.285.43-.392l.678-.492.962 1.348zM46.323 31.9c-.128.038-.259.06-.392.067l-.128.346a.986.986 0 0 0 .285-.038l-.43 1.179.525.196.56-1.588-.42-.162zM47.005 32.168l1.589.263-.056.335-.967 1.197-.644-.106 1.04-1.18-1.018-.168zM49.802 32.906c0-.106-.078-.257-.325-.251-.246.005-.313.134-.307.28.005.145.095.262.324.251.23-.012.325-.124.32-.28h-.012zm-.56.76c0 .095.112.162.275.152.313 0 .341-.23.33-.56a.617.617 0 0 1-.465.196.712.712 0 0 1-.52-.128.495.495 0 0 1-.201-.381c0-.34.302-.598.81-.62a.755.755 0 0 1 .795.347c.08.156.127.327.134.502a.918.918 0 0 1-.19.65.932.932 0 0 1-.693.273.994.994 0 0 1-.672-.162.396.396 0 0 1-.14-.274l.538.005zM51.597 33.477a.266.266 0 0 0 .185-.151.995.995 0 0 0-.033-.459 1.47 1.47 0 0 0-.157-.375.229.229 0 0 0-.29-.1c-.158.045-.28.14-.14.632.095.34.195.514.435.447v.006zm-.934-1.018a.888.888 0 0 1 .56-.375.818.818 0 0 1 .676.04.868.868 0 0 1 .41.559.794.794 0 0 1-.61 1.118.863.863 0 0 1-.65 0 .936.936 0 0 1-.424-.587.926.926 0 0 1 .038-.755z" fill="#005CB9"/>
        <g>
            <mask id="b" fill="#fff">
                <use xlink:href="#a"/>
            </mask>
            <path fill="#005CB9" mask="url(#b)" d="M0 52h7.588L33 0h-7.588z"/>
        </g>
        <path fill="#FFF" d="M38.512 0h-5.935L7.512 52h5.935z"/>
        <path d="M53.773 20.75h-9.307a7.21 7.21 0 0 1 .559 2.835v.24c-.045.89-.324 1.399-.251 2.338-.001.762.28 1.496.788 2.063.192.182.411.333.649.448.207.1.422.182.644.246l.642.195c.221.069.438.15.649.24a2.443 2.443 0 0 1 .968.744c.095-.125.204-.24.325-.34.191-.167.409-.304.642-.403.216-.097.436-.181.66-.252l.644-.196a4.21 4.21 0 0 0 .643-.246c.239-.114.457-.265.65-.447.508-.567.788-1.302.788-2.063.072-.94-.207-1.448-.252-2.337v-.24a7.252 7.252 0 0 1 .56-2.836v.012zm-.028 0a7.526 7.526 0 0 0-.559 2.796v.24c.02.328.065.653.134.974.11.446.149.906.117 1.364a3.096 3.096 0 0 1-.782 2.046 2.308 2.308 0 0 1-.638.442 4.4 4.4 0 0 1-.643.246c-.13.045-.26.083-.386.118l-.263.083c-.22.065-.435.143-.644.235a2.632 2.632 0 0 0-.649.408 1.929 1.929 0 0 0-.312.325 2.136 2.136 0 0 0-.308-.325 2.803 2.803 0 0 0-.654-.408 5.495 5.495 0 0 0-.643-.235l-.247-.073-.403-.128a4.253 4.253 0 0 1-.642-.246 2.308 2.308 0 0 1-.639-.442 3.08 3.08 0 0 1-.782-2.046 4.463 4.463 0 0 1 .117-1.364c.066-.321.111-.646.135-.973v-.24a7.376 7.376 0 0 0-.56-2.796h9.251z" fill="#005CB9"/>
    </g>
</svg>
